<ttFont>
          <CharString index="0">
            rmoveto
            9 8 2 4 8 hvcurveto
            -44 -3 -47 -41 -30 hhcurveto
            -15 vlineto
            70 49 61 59 24 -8 23 -19 19 hvcurveto
            10 -10 -13 6 -15 hhcurveto
            -29 -25 -25 -29 -29 26 -25 29 hvcurveto
            return
          </CharString>
          <CharString index="1">
            rmoveto
            -61 hlineto
            -184 -2 -22 -129 -85 hhcurveto
            -50 -55 44 156 105 58 74 28 41 hvcurveto
            -77 hlineto
            -34 -46 -42 -78 -98 vvcurveto
            -198 96 -62 76 73 43 44 70 24 vhcurveto
            -70 24 42 -44 73 hhcurveto
            76 96 62 198 98 -42 78 -34 46 hvcurveto
            -77 hlineto
            28 -41 58 -74 -105 vvcurveto
            -156 -55 -44 -50 -85 -22 129 184 -2 vhcurveto
            endchar
          </CharString>
          <CharString index="2">
            rmoveto
            25 12 21 52 62 hhcurveto
            62 20 -52 -25 12 hvcurveto
            41 hlineto
            0 -29 138 -106 -106 -30 -138 0 vhcurveto
            return
          </CharString>
          <CharString index="3">
            rmoveto
            -104 callgsubr
            return
          </CharString>
          <CharString index="4">
            73 callgsubr
            25 24 163 callgsubr
            -195 -16 callgsubr
            -24 30 30 25 24 163 callgsubr
            return
          </CharString>
          <CharString index="5">
            -30 24 -25 30 vhcurveto
            -15 -65 -38 -38 0 vvcurveto
            17 -10 rlineto
            0 90 46 122 vvcurveto
            30 -24 24 -30 -30 -24 -84 callgsubr
            return
          </CharString>
          <CharString index="6">
            rmoveto
            116 77 117 -77 19 34 -136 124 -135 -124 rlineto
            return
          </CharString>
          <CharString index="7">
            -115 -117 -112 -138 return
          </CharString>
          <CharString index="8">
            rmoveto
            105 -28 55 -25 -84 vvcurveto
            -80 -55 -37 -120 -68 -66 50 64 -39 vhcurveto
            -59 -42 rlineto
            -85 55 88 -56 166 callsubr
            98 65 121 146 -111 28 -109 37 hvcurveto
            -78 26 -83 9 96 vvcurveto
            80 39 37 104 68 49 -35 -61 45 vhcurveto
            56 47 rlineto
            80 -62 -67 37 -89 hhcurveto
            -139 -80 -64 -121 -117 90 -53 131 -35 hvcurveto
            endchar
          </CharString>
          <CharString index="9">
            -138 119 -112 115 return
          </CharString>
          <CharString index="10">
            -223 107 -107 callgsubr
            return
          </CharString>
          <CharString index="11">
            rmoveto
            -150 250 rlineto
            -87 hlineto
            199 -332 rlineto
            -350 74 347 vlineto
            -57 callgsubr
            return
          </CharString>
          <CharString index="12">
            -232 105 -107 callsubr
            return
          </CharString>
          <CharString index="13">
            rmoveto
            -117 -77 -116 77 -19 -34 135 -124 136 124 rlineto
            return
          </CharString>
          <CharString index="14">
            rmoveto
            -25 -12 -21 -52 -62 hhcurveto
            -62 -20 52 25 -12 hvcurveto
            -41 hlineto
            0 29 -138 106 106 30 138 0 vhcurveto
            return
          </CharString>
          <CharString index="15">
            rmoveto
            -192 92 -107 153 153 91 107 192 vhcurveto
            399 -79 -399 vlineto
            -125 -45 -105 109 callgsubr
            -45 105 125 vhcurveto
            399 -80 vlineto
            endchar
          </CharString>
          <CharString index="16">
            661 -107 callsubr
            return
          </CharString>
          <CharString index="17">
            -55 -24 -37 -43 -59 vvcurveto
            -94 94 -50 86 110 44 46 38 38 vhcurveto
            -44 44 rlineto
            -35 -35 -49 -31 -62 hhcurveto
            -56 -50 34 48 68 64 20 76 hvcurveto
            endchar
          </CharString>
          <CharString index="18">
            rmoveto
            79 57 26 39 13 -7 15 -14 16 hvcurveto
            -39 hlineto
            4 -11 2 -8 -8 vvcurveto
            -30 -32 -7 -50 vhcurveto
            -26 hlineto
            -50 -32 7 30 8 2 8 4 11 hvcurveto
            -39 hlineto
            -14 -16 -7 -15 -13 vvcurveto
            -39 57 -26 79 vhcurveto
            return
          </CharString>
          <CharString index="19">
            68 vlineto
            -46 -44 18 62 hvcurveto
            320 75 callgsubr
            -102 76 -46 82 vhcurveto
            return
          </CharString>
          <CharString index="20">
            rmoveto
            -40 callgsubr
            104 78 84 86 -7 callsubr
            57 -45 -66 37 -66 60 callgsubr
          </CharString>
          <CharString index="21">
            75 557 hlineto
            322 -557 rlineto
            74 682 -74 -559 hlineto
            -322 559 rlineto
            -75 hlineto
            endchar
          </CharString>
          <CharString index="22">
            -42 callsubr
            -132 -77 vvcurveto
            91 hlineto
            99 -115 165 160 callsubr
            vhcurveto
            90 88 27 146 110 hhcurveto
            32 -2 12 30 vvcurveto
            -204 15 -269 -35 -166 hvcurveto
            return
          </CharString>
          <CharString index="23">
            vvcurveto
            -69 55 -26 71 29 35 5 11 40 vhcurveto
            -7 26 rlineto
            -4 -16 -19 -2 -19 hhcurveto
            -49 -54 11 57 hvcurveto
            return
          </CharString>
          <CharString index="24">
            rmoveto
            110 27 -146 -90 88 hvcurveto
            -130 -108 -115 -165 -99 vvcurveto
            91 hlineto
            77 63 132 153 117 vhcurveto
            20 -10 23 -8 27 -4 rrcurveto
            -304 75 304 vlineto
            -85 callsubr
            304 -75 -304 vlineto
            35 -166 15 269 -204 hhcurveto
            -30 -2 -12 -32 vvcurveto
            return
          </CharString>
          <CharString index="25">
            -68 -468 -51 callsubr
            return
          </CharString>
          <CharString index="26">
            rmoveto
            20 34 -216 141 -34 -58 rlineto
            return
          </CharString>
          <CharString index="27">
            rmoveto
            91 8 -90 -63 57 hvcurveto
            -126 -70 -52 -117 -54 vvcurveto
            81 hlineto
            28 25 106 134 62 vhcurveto
            18 -7 20 -6 25 -2 rrcurveto
            -181 70 181 vlineto
            25 2 20 -13 callsubr
            -106 -28 vvcurveto
            81 hlineto
            54 -52 117 -126 70 vhcurveto
            63 57 8 90 91 hhcurveto
            32 -1 12 30 vvcurveto
            -190 58 -191 -23 -148 hvcurveto
            214 -70 -214 vlineto
            23 -148 58 191 -190 hhcurveto
            -30 -1 -12 -32 vvcurveto
            return
          </CharString>
          <CharString index="28">
            -49 callgsubr
            vlineto
            endchar
          </CharString>
          <CharString index="29">
            -75 -295 -300 295 -75 hlineto
            return
          </CharString>
          <CharString index="30">
            83 callsubr
            24 25 -69 callgsubr
            return
          </CharString>
          <CharString index="31">
            rmoveto
            -45 267 45 vlineto
            return
          </CharString>
          <CharString index="32">
            -120 -94 -53 callgsubr
            return
          </CharString>
          <CharString index="33">
            205 -192 15 return
          </CharString>
          <CharString index="34">
            149 hlineto
            172 165 102 238 238 -165 104 -172 hvcurveto
            -149 hlineto
            75 -69 rmoveto
            52 hlineto
            173 107 -84 -189 -189 -107 -83 -173 hvcurveto
            -52 hlineto
            endchar
          </CharString>
          <CharString index="35">
            662 -105 callsubr
            return
          </CharString>
          <CharString index="36">
            -100 callsubr
            -98 callsubr
            return
          </CharString>
          <CharString index="37">
            -887 -104 callsubr
            return
          </CharString>
          <CharString index="38">
            296 -67 -296 vlineto
            return
          </CharString>
          <CharString index="39">
            rmoveto
            hintmask 00010110
            -38 -18 63 -61 hhcurveto
            hintmask 00100110
            -46 callsubr
            hintmask 00010110
            -17 callsubr
            hintmask 00100110
            38 18 -64 61 hhcurveto
            hintmask 00010110
            -78 callgsubr
            hintmask 11001001
            return
          </CharString>
          <CharString index="40">
            178 333 rlineto
            -84 hlineto
            -136 -255 -135 255 rlineto
            -84 hlineto
            177 -333 -185 -349 rlineto
            84 hlineto
            143 270 144 -270 rlineto
            return
          </CharString>
          <CharString index="41">
            356 rmoveto
            39 30 23 26 73 hhcurveto
            86 43 -80 -63 7 hvcurveto
            7 -23 -28 5 -28 hhcurveto
            -198 -69 -79 -83 -90 79 -54 102 137 75 48 24 29 hvcurveto
            -45 44 58 -27 58 hhcurveto
            120 51 44 67 44 hvcurveto
            -54 35 rlineto
            -51 -30 -29 -33 144 callgsubr
            -116 111 -116 -75 -75 -47 -70 -44 vhcurveto
            73 -32 -59 44 -85 hhcurveto
            -100 -38 -42 -52 -41 hvcurveto
            395 -93 rmoveto
            73 23 63 52 68 hhcurveto
            68 63 -52 -73 23 hvcurveto
            -353 -186 rmoveto
            -25 -31 -64 -39 -102 hhcurveto
            -40 -69 14 67 66 66 38 127 27 27 -6 -6 25 hvcurveto
            2 -40 13 -36 19 -33 rrcurveto
            endchar
          </CharString>
          <CharString index="42">
            -104 -52 -83 -86 -86 -54 58 68 vhcurveto
            296 -67 vlineto
            endchar
          </CharString>
          <CharString index="43">
            rmoveto
            28 -27 192 171 -48 48 rlineto
            -344 -192 rmoveto
            28 -27 192 171 -48 48 rlineto
            return
          </CharString>
          <CharString index="44">
            -1 callsubr
            53 48 21 37 37 vhcurveto
            return
          </CharString>
          <CharString index="45">
            -61 68 726 75 callgsubr
            48 -44 -60 30 -60 hhcurveto
            -100 callsubr
            hvcurveto
            68 hmoveto
            104 78 84 86 -20 callsubr
            vhcurveto
            return
          </CharString>
          <CharString index="46">
            -31 callsubr
            -325 return
          </CharString>
          <CharString index="47">
            162 -281 rlineto
            83 hlineto
            -168 291 rlineto
            86 22 73 61 107 vvcurveto
            35 callsubr
            vhcurveto
            return
          </CharString>
          <CharString index="48">
            15 79 108 return
          </CharString>
          <CharString index="49">
            309 rmoveto
            127 62 -127 242 52 hlineto
            173 107 -84 -189 -189 -107 -83 -173 hvcurveto
            -52 hlineto
            -75 241 rmoveto
            -309 149 vlineto
            172 165 102 238 238 -165 104 -172 hvcurveto
            -149 -311 -60 -62 hlineto
            endchar
          </CharString>
          <CharString index="50">
            109 86 109 return
          </CharString>
          <CharString index="51">
            rmoveto
            120 -92 68 -115 -54 -48 -20 -38 -37 vhcurveto
            hintmask 10101010
            42 -82 callsubr
            hintmask 11001010
            -79 callsubr
          </CharString>
          <CharString index="52">
            68 hintmask 00000000
            return
          </CharString>
          <CharString index="53">
            62 376 62 return
          </CharString>
          <CharString index="54">
            44 62 callsubr
            697 68 hstem
            45 76 240 66 vstem
            295 -15 rmoveto
            -41 -88 rlineto
            94 13 -9 -19 -28 -82 -14 -57 hvcurveto
            -27 vlineto
            139 66 26 49 23 -29 34 -79 hvcurveto
            27 54 84 11 67 61 50 86 rlinecurve
            -87 callgsubr
            -182 109 -156 141 -17 hvcurveto
            endchar
          </CharString>
          <CharString index="55">
            63 callgsubr
            -2 callgsubr
            return
          </CharString>
          <CharString index="56">
            68 234 vlineto
            return
          </CharString>
          <CharString index="57">
            75 502 hlineto
            203 -502 rlineto
            80 hlineto
            203 503 rlineto
            -503 74 682 -81 vlineto
            -236 -583 -237 583 rlineto
            -81 hlineto
            endchar
          </CharString>
          <CharString index="58">
            rmoveto
            hintmask 01110000
            -38 -18 63 -61 hhcurveto
            hintmask 10110000
            -46 callsubr
            hintmask 01110000
            -17 callsubr
            hintmask 10110000
            38 18 -64 61 hhcurveto
            hintmask 01110000
            -78 callgsubr
            endchar
          </CharString>
          <CharString index="59">
            rmoveto
            264 hlineto
            -264 -344 rlineto
            -62 346 62 -264 vlineto
            264 344 rlineto
            62 -346 vlineto
            endchar
          </CharString>
          <CharString index="60">
            -322 -559 rlineto
            559 -74 -682 74 vlineto
            322 557 rlineto
            -557 vlineto
            endchar
          </CharString>
          <CharString index="61">
            -59 -47 -72 -58 -7 hvcurveto
            45 hlineto
            return
          </CharString>
          <CharString index="62">
            81 callsubr
            -58 callgsubr
            63 -115 hvcurveto
            return
          </CharString>
          <CharString index="63">
            108 hstemhm
            43 108 -88 -55 callsubr
            hintmask 11110000
            43 73 callgsubr
            24 24 -69 callgsubr
            return
          </CharString>
          <CharString index="64">
            110 callsubr
            -143 return
          </CharString>
          <CharString index="65">
            27 4 23 8 20 10 rrcurveto
            153 -117 63 return
          </CharString>
          <CharString index="66">
            -192 122 -164 153 96 76 65 95 55 return
          </CharString>
          <CharString index="67">
            -25 callgsubr
            -36 20 return
          </CharString>
          <CharString index="68">
            -27 callgsubr
            409 20 return
          </CharString>
          <CharString index="69">
            -5 -31 callgsubr
            return
          </CharString>
          <CharString index="70">
            1 -16 -54 callsubr
            return
          </CharString>
          <CharString index="71">
            -80 callgsubr
            endchar
          </CharString>
          <CharString index="72">
            rmoveto
            -30 24 -24 30 30 25 24 163 callgsubr
            -195 -16 callgsubr
            -24 30 30 25 24 163 callgsubr
            hintmask 11010010
            152 -567 rmoveto
            -86 -54 58 68 hvcurveto
            -69 callsubr
            -1 callsubr
            115 92 69 120 -44 callgsubr
            -68 -54 -58 -86 vhcurveto
            endchar
          </CharString>
          <CharString index="73">
            -278 0 66 550 66 return
          </CharString>
          <CharString index="74">
            -153 -153 -140 return
          </CharString>
          <CharString index="75">
            767 -105 callsubr
            return
          </CharString>
          <CharString index="76">
            75 325 300 return
          </CharString>
          <CharString index="77">
            -16 -6 callsubr
            return
          </CharString>
          <CharString index="78">
            62 188 105 callsubr
            return
          </CharString>
          <CharString index="79">
            rmoveto
            57 36 21 57 53 vvcurveto
            131 -92 55 -106 -60 -89 -19 -53 -50 vhcurveto
            50 -47 rlineto
            41 35 71 11 43 hhcurveto
            75 48 -58 -61 -61 -40 -56 -120 hvcurveto
            -67 vlineto
            return
          </CharString>
          <CharString index="80">
            -132 -200 60 546 62 hstem
            311 68 vstem
            13 406 rmoveto
            248 hlineto
            -184 -204 rlineto
            -62 vlineto
            170 64 -84 -56 -92 -54 -48 -85 -54 -47 30 30 -30 hvcurveto
            -44 -43 rlineto
            -35 35 52 -42 85 hhcurveto
            118 92 64 136 79 -52 97 -174 22 hvcurveto
            188 208 rlineto
            62 -328 vlineto
            endchar
          </CharString>
          <CharString index="81">
            106 30 34 75 hvcurveto
            -59 hlineto
            -47 -15 -17 -62 vhcurveto
            -26 hlineto
            -62 -14 17 47 hvcurveto
            -59 hlineto
            -75 29 -34 106 vhcurveto
            return
          </CharString>
          <CharString index="82">
            156 hlineto
            39 callsubr
            158 -68 hlineto
            68 -220 rmoveto
            86 hlineto
            86 54 -30 -63 -63 -54 -30 -86 hvcurveto
            -86 hlineto
            endchar
          </CharString>
          <CharString index="83">
            15 65 38 38 0 vvcurveto
            -16 10 rlineto
            0 -91 -46 -122 vvcurveto
            -30 return
          </CharString>
          <CharString index="84">
            33 20 21 29 36 vvcurveto
            85 -64 48 -90 -84 -31 -51 -45 -38 vhcurveto
            47 -40 rlineto
            46 38 38 28 30 hhcurveto
            52 26 -20 -51 -43 -52 -14 -50 -4 hvcurveto
            endchar
          </CharString>
          <CharString index="85">
            rmoveto
            -167 135 -140 171 167 140 136 171 167 -136 140 -171 -167 -139 -136 -171 vhcurveto
            46 hmoveto
            142 114 118 146 142 118 -114 -146 -142 -114 -118 -146 -142 -118 114 146 vhcurveto
            return
          </CharString>
          <CharString index="86">
            -41 69 468 -69 -235 vlineto
            return
          </CharString>
          <CharString index="87">
            86 78 -84 -104 return
          </CharString>
          <CharString index="88">
            -4 callsubr
            444 -68 vlineto
            endchar
          </CharString>
          <CharString index="89">
            rmoveto
            -98 callsubr
            73 callsubr
            138 -117 112 -115 -100 callsubr
            vhcurveto
            71 33 rmoveto
            88 14 70 67 77 hhcurveto
            77 70 -67 -88 14 hvcurveto
            1 -62 rmoveto
            -90 -13 -71 -69 -78 hhcurveto
            -78 -71 69 90 -13 hvcurveto
            endchar
          </CharString>
          <CharString index="90">
            26 5 24 38 39 hhcurveto
            return
          </CharString>
          <CharString index="91">
            -107 callsubr
            hintmask 10010001
            423 -76 -92 callgsubr
            endchar
          </CharString>
          <CharString index="92">
            140 callsubr
            520 -68 -520 56 callgsubr
            endchar
          </CharString>
          <CharString index="93">
            47 callsubr
            198 -61 callgsubr
            return
          </CharString>
          <CharString index="94">
            6 18 7 rrcurveto
            134 -62 25 return
          </CharString>
          <CharString index="95">
            -305 0 68 380 20 return
          </CharString>
          <CharString index="96">
            57 callsubr
            94 return
          </CharString>
          <CharString index="97">
            167 244 rmoveto
            -152 -244 rlineto
            80 hlineto
            112 179 112 -179 rlineto
            return
          </CharString>
          <CharString index="98">
            150 94 return
          </CharString>
          <CharString index="99">
            35 callgsubr
            hintmask 0100001000000000
            return
          </CharString>
          <CharString index="100">
            50 46 -27 -44 31 hvcurveto
            50 39 rlineto
            return
          </CharString>
          <CharString index="101">
            69 576 68 return
          </CharString>
          <CharString index="102">
            62 -36 20 86 -83 callgsubr
            return
          </CharString>
          <CharString index="103">
            68 186 hlineto
            -34 callgsubr
            -186 rlineto
            return
          </CharString>
          <CharString index="104">
            119 58 150 return
          </CharString>
          <CharString index="105">
            765 -105 callsubr
            return
          </CharString>
          <CharString index="106">
            -120 92 -69 115 return
          </CharString>
          <CharString index="107">
            -34 callsubr
            62 45 hstemhm
            -14 267 -200 147 136 callsubr
            -14 29 callsubr
            hintmask 11001000
            -89 -173 -92 callgsubr
            endchar
          </CharString>
          <CharString index="108">
            -107 -10 62 170 62 132 62 76 -83 callgsubr
            33 76 -38 76 -47 -3 callsubr
            -62 callgsubr
            hintmask 0001000001000000
            277 570 -100 callgsubr
            hintmask 0000110010000000
            return
          </CharString>
          <CharString index="109">
            86 41 -55 -53 -53 -41 -57 -86 hvcurveto
            -127 hlineto
            return
          </CharString>
          <CharString index="110">
            90 88 27 146 110 hhcurveto
            32 -2 12 30 vvcurveto
            -204 15 -269 -35 -166 hvcurveto
            304 -75 return
          </CharString>
          <CharString index="111">
            75 rmoveto
            -75 69 468 -69 -113 vlineto
            hintmask 11011100
            -242 -85 -67 -87 -86 -59 108 217 vhcurveto
            97 -67 -668 67 267 vlineto
            -58 38 51 -26 56 hhcurveto
            62 64 27 65 46 hvcurveto
            endchar
          </CharString>
          <CharString index="112">
            342 62 -267 620 -75 hlineto
            endchar
          </CharString>
          <CharString index="113">
            4 -200 21 179 21 401 -5 callsubr
            63 68 return
          </CharString>
          <CharString index="114">
            4 -200 -43 callgsubr
            99 -59 callsubr
            return
          </CharString>
          <CharString index="115">
            37 callgsubr
            79 108 hstemhm
            return
          </CharString>
          <CharString index="116">
            126 88 52 103 103 -90 52 -126 hvcurveto
            return
          </CharString>
          <CharString index="117">
            -32 105 callgsubr
            hstem
            299 336 rmoveto
            -177 284 rlineto
            347 62 -426 -75 hlineto
            170 -271 -170 -273 rlineto
            -63 426 62 -341 vlineto
            endchar
          </CharString>
          <CharString index="118">
            9 callgsubr
            332 -61 callgsubr
            return
          </CharString>
          <CharString index="119">
            -226 51 160 43 callsubr
            return
          </CharString>
          <CharString index="120">
            -50 -64 39 hvcurveto
            59 42 rlineto
            return
          </CharString>
          <CharString index="121">
            -94 603 -83 callgsubr
            45 -3 callsubr
            hintmask 00000000
            hintmask 10001000
            222 144 callsubr
            hintmask 01110000
            return
          </CharString>
          <CharString index="122">
            -35 callgsubr
            -326 76 682 -76 vlineto
            endchar
          </CharString>
          <CharString index="123">
            -23 callgsubr
            hstem
            79 75 return
          </CharString>
          <CharString index="124">
            -79 hlineto
            -134 -369 -134 369 rlineto
            -78 hlineto
            -49 -468 rlineto
            68 hlineto
            35 336 122 -336 rlineto
            72 hlineto
            123 336 35 -336 rlineto
            return
          </CharString>
          <CharString index="125">
            -104 -37 -83 -86 -86 -39 58 68 vhcurveto
            121 -67 vlineto
            endchar
          </CharString>
          <CharString index="126">
            26 callgsubr
            -207 69 468 -69 -60 vlineto
            18 callsubr
          </CharString>
          <CharString index="127">
            47 rmoveto
            -77 callsubr
            return
          </CharString>
          <CharString index="128">
            -75 -200 21 627 20 return
          </CharString>
          <CharString index="129">
            vstem
            430 524 -35 callgsubr
            return
          </CharString>
          <CharString index="130">
            54 74 -9 -72 -55 -43 -16 -53 -32 -29 19 26 -21 hvcurveto
            -43 -35 rlineto
            -36 28 49 -28 48 hhcurveto
            68 86 35 90 58 -33 32 -41 21 hvcurveto
            return
          </CharString>
          <CharString index="131">
            0 -27 callgsubr
            332 -61 callgsubr
            return
          </CharString>
          <CharString index="132">
            rmoveto
            -243 184 -41 -55 171 -129 -171 -128 41 -55 rlineto
            return
          </CharString>
          <CharString index="133">
            0 67 callsubr
            63 68 return
          </CharString>
          <CharString index="134">
            62 30 rlineto
            71 -30 -60 39 -87 hhcurveto
            return
          </CharString>
          <CharString index="135">
            21 -21 304 74 230 74 return
          </CharString>
          <CharString index="136">
            789 -76 callsubr
            return
          </CharString>
          <CharString index="137">
            0 129 callsubr
            return
          </CharString>
          <CharString index="138">
            vhcurveto
            -22 -19 -11 -26 59 callgsubr
            return
          </CharString>
          <CharString index="139">
            -379 rmoveto
            -98 callsubr
            59 59 29 48 44 vhcurveto
            return
          </CharString>
          <CharString index="140">
            -14 43 callsubr
            return
          </CharString>
          <CharString index="141">
            63 hstem
            79 75 300 82 vstem
            79 hmoveto
            return
          </CharString>
          <CharString index="142">
            138 -124 63 -115 return
          </CharString>
          <CharString index="143">
            -46 -34 -40 -46 vhcurveto
            return
          </CharString>
          <CharString index="144">
            190 -2 callsubr
            return
          </CharString>
          <CharString index="145">
            rmoveto
            -161 -113 vlineto
            116 259 rmoveto
            -184 -264 rlineto
            -53 181 -105 59 105 40 58 -40 259 vlineto
            endchar
          </CharString>
          <CharString index="146">
            9 callsubr
            -86 return
          </CharString>
          <CharString index="147">
            47 callgsubr
            hintmask 00000000
            return
          </CharString>
          <CharString index="148">
            15 49 20 10 108 return
          </CharString>
          <CharString index="149">
            -55 52 67 -35 70 hhcurveto
            153 140 164 192 87 -29 81 -45 63 hvcurveto
            92 111 rlineto
            -63 hlineto
            -60 -73 rlineto
            return
          </CharString>
          <CharString index="150">
            151 callsubr
            86 -83 callgsubr
            40 67 return
          </CharString>
          <CharString index="151">
            rmoveto
            -26 -91 rlineto
            return
          </CharString>
          <CharString index="152">
            -38 42 53 -23 52 hhcurveto
            73 callsubr
            59 -22 55 -33 43 hvcurveto
            73 77 rlineto
            -63 hlineto
            -41 -44 rlineto
            return
          </CharString>
          <CharString index="153">
            21 74 callgsubr
            return
          </CharString>
          <CharString index="154">
            21 304 62 return
          </CharString>
          <CharString index="155">
            128 callgsubr
            hintmask 10111100
            -104 -78 -84 -86 -86 -78 84 104 vhcurveto
            endchar
          </CharString>
          <CharString index="156">
            -16 69 532 -74 callsubr
            16 68 -5 108 hstemhm
            return
          </CharString>
          <CharString index="157">
            55 callgsubr
            -59 callsubr
            return
          </CharString>
          <CharString index="158">
            -40 callsubr
            99 return
          </CharString>
          <CharString index="159">
            -226 51 160 151 callsubr
            return
          </CharString>
          <CharString index="160">
            -30 callsubr
            28 158 hstem
            return
          </CharString>
          <CharString index="161">
            69 238 62 276 68 return
          </CharString>
          <CharString index="162">
            79 190 51 187 79 return
          </CharString>
          <CharString index="163">
            62 callgsubr
            hstem
            return
          </CharString>
          <CharString index="164">
            120 120 return
          </CharString>
          <CharString index="165">
            rlineto
            35 26 19 26 42 hhcurveto
            46 27 -18 -46 -40 -22 -24 -52 -41 hvcurveto
            -66 -53 -57 -58 -65 vvcurveto
            -32 260 return
          </CharString>
          <CharString index="166">
            hvcurveto
            -143 hlineto
            return
          </CharString>
          <CharString index="167">
            hhcurveto
            -153 -122 -165 -192 -41 callsubr
            hvcurveto
            endchar
          </CharString>
          <CharString index="168">
            -82 65 -65 82 vhcurveto
            71 67 -71 hlineto
            -46 -33 34 46 hvcurveto
            return
          </CharString>
          <CharString index="169">
            -200 27 70 35 return
          </CharString>
          <CharString index="170">
            30 callgsubr
            91 108 hstemhm
            58 67 -12 -57 callsubr
            -12 67 hintmask 00000000
            hintmask 00101100
            return
          </CharString>
          <CharString index="171">
            80 callgsubr
            73 61 hstemhm
            40 67 122 -11 callgsubr
            -98 61 return
          </CharString>
          <CharString index="172">
            -9 callsubr
            139 120 55 49 -30 -46 38 vhcurveto
            -435 -213 rmoveto
            -86 28 -81 45 -62 vhcurveto
            return
          </CharString>
          <CharString index="173">
            181 62 -430 -62 181 -406 return
          </CharString>
          <CharString index="174">
            -20 callgsubr
            -36 20 99 175 hstemhm
            return
          </CharString>
          <CharString index="175">
            rmoveto
            68 726 -68 hlineto
            endchar
          </CharString>
          <CharString index="176">
            -2 callgsubr
            -92 -71 return
          </CharString>
          <CharString index="177">
            57 callgsubr
            hstem
            return
          </CharString>
          <CharString index="178">
            627 rmoveto
            43 -34 rlineto
            24 18 25 19 29 hhcurveto
            44 24 -26 -34 -38 -57 -24 -57 hvcurveto
            -54 vlineto
            return
          </CharString>
          <CharString index="179">
            109 hstem
            56 108 vstem
            56 return
          </CharString>
          <CharString index="180">
            -39 callgsubr
            112 138 return
          </CharString>
          <CharString index="181">
            -406 68 406 return
          </CharString>
          <CharString index="182">
            28 406 -59 callgsubr
            return
          </CharString>
          <CharString index="183">
            21 427 20 return
          </CharString>
          <CharString index="184">
            125 -861 -91 callgsubr
            return
          </CharString>
          <CharString index="185">
            63 hstem
            79 75 vstem
            154 619 rmoveto
            119 callgsubr
            75 hlineto
            endchar
          </CharString>
          <CharString index="186">
            hstem
            63 68 268 68 vstem
            63 hmoveto
            return
          </CharString>
          <CharString index="187">
            150 hintmask 00000000
            hintmask 00100001
            return
          </CharString>
          <CharString index="188">
            75 281 145 hlineto
            return
          </CharString>
          <CharString index="189">
            92 50 35 55 44 hvcurveto
            return
          </CharString>
          <CharString index="190">
            -30 24 -25 30 30 return
          </CharString>
          <CharString index="191">
            88 callsubr
            379 726 -81 callsubr
            hintmask 11010100
            return
          </CharString>
          <CharString index="192">
            62 194 -20 107 callsubr
            return
          </CharString>
          <CharString index="193">
            44 callgsubr
            -132 -77 vvcurveto
            return
          </CharString>
          <CharString index="194">
            -12 callsubr
            91 108 hstem
            -60 109 10 68 8 109 vstem
            return
          </CharString>
          <CharString index="195">
            hintmask 00000000
            hintmask 00101000
            return
          </CharString>
          <CharString index="196">
            -43 callsubr
            282 return
          </CharString>
          <CharString index="197">
            hlineto
            -23 58 -51 73 -90 50 rrcurveto
            63 57 8 90 91 hhcurveto
            32 -1 12 30 vvcurveto
            return
          </CharString>
          <CharString index="198">
            424 258 hstem
            59 68 vstem
            59 424 rmoveto
            68 258 -68 hlineto
            endchar
          </CharString>
          <CharString index="199">
            119 -24 40 callsubr
            hintmask 01011000
            return
          </CharString>
          <CharString index="200">
            340 114 callgsubr
            return
          </CharString>
          <CharString index="201">
            148 callsubr
            vstem
            return
          </CharString>
          <CharString index="202">
            -36 -69 vhcurveto
            -52 vlineto
            130 return
          </CharString>
          <CharString index="203">
            0 47 callsubr
            return
          </CharString>
          <CharString index="204">
            147 callgsubr
            202 119 -107 61 return
          </CharString>
          <CharString index="205">
            22 -199 21 162 -54 callsubr
            83 -59 callsubr
            hstem
            55 68 return
          </CharString>
          <CharString index="206">
            -12 callgsubr
            28 return
          </CharString>
          <CharString index="207">
            hlineto
            75 -344 63 callgsubr
            return
          </CharString>
          <CharString index="208">
            19 620 -52 callgsubr
            return
          </CharString>
          <CharString index="209">
            vstem
            27 347 26 callgsubr
            return
          </CharString>
          <CharString index="210">
            109 -12 154 callsubr
            return
          </CharString>
          <CharString index="211">
            -16 69 -32 -21 629 68 -15 -20 hstemhm
            return
          </CharString>
          <CharString index="212">
            62 126 62 return
          </CharString>
          <CharString index="213">
            61 callgsubr
            hintmask 11101100
            return
          </CharString>
          <CharString index="214">
            79 callsubr
            68 212 268 -212 return
          </CharString>
          <CharString index="215">
            65 95 55 hvcurveto
            endchar
          </CharString>
          <CharString index="216">
            67 -3 66 hstemhm
            return
          </CharString>
          <CharString index="217">
            -58 callgsubr
            62 -115 hvcurveto
            return
          </CharString>
          <CharString index="218">
            -20 hstemhm
            63 54 callgsubr
            return
          </CharString>
          <CharString index="219">
            45 hstem
            -453 267 vstem
            -453 return
          </CharString>
          <CharString index="220">
            262 63 357 -20 hstem
            32 75 return
          </CharString>
          <CharString index="221">
            42 135 callsubr
            return
          </CharString>
          <CharString index="222">
            51 179 71 -62 callgsubr
            return
          </CharString>
          <CharString index="223">
            -111 0 62 344 62 return
          </CharString>
          <CharString index="224">
            159 callgsubr
            -16 -20 hstemhm
            return
          </CharString>
          <CharString index="225">
            108 -11 205 hstemhm
            58 return
          </CharString>
          <CharString index="226">
            -620 -250 620 -75 return
          </CharString>
          <CharString index="227">
            84 callgsubr
            21 return
          </CharString>
          <CharString index="228">
            307 63 -382 return
          </CharString>
          <CharString index="229">
            -218 158 60 return
          </CharString>
          <CharString index="230">
            234 62 -302 return
          </CharString>
          <CharString index="231">
            62 hstem
            214 74 return
          </CharString>
          <CharString index="232">
            rlineto
            -74 hlineto
            endchar
          </CharString>
          <CharString index="233">
            30 71 callgsubr
            59 62 -46 -20 callgsubr
            -36 20 return
          </CharString>
          <CharString index="234">
            252 0 62 -62 66 272 62 216 66 -20 20 return
          </CharString>
          <CharString index="235">
            -61 vlineto
            153 56 79 175 158 -88 85 -130 return
          </CharString>
          <CharString index="236">
            21 641 20 return
          </CharString>
          <CharString index="237">
            hintmask 10111000
            -71 620 -75 hlineto
            hintmask 01111000
            -620 -340 return
          </CharString>
          <CharString index="238">
            137 callsubr
            186 205 -173 63 hstemhm
            return
          </CharString>
          <CharString index="239">
            -51 callsubr
            104 53 84 86 86 53 -58 -68 vhcurveto
            return
          </CharString>
          <CharString index="240">
            60 -20 callgsubr
            -36 20 hstemhm
            return
          </CharString>
          <CharString index="241">
            -20 hstem
            63 68 278 68 vstem
            return
          </CharString>
          <CharString index="242">
            -16 69 257 62 257 68 return
          </CharString>
          <CharString index="243">
            hintmask 00000000
            hintmask 00110000
            return
          </CharString>
          <CharString index="244">
            0 58 callgsubr
            return
          </CharString>
          <CharString index="245">
            567 175 hstem
            return
          </CharString>
          <CharString index="246">
            0 62 620 -20 return
          </CharString>
          <CharString index="247">
            82 66 66 82 hvcurveto
            return
          </CharString>
          <CharString index="248">
            62 rmoveto
            hintmask 11110000
            -57 406 -68 -406 -268 return
          </CharString>
          <CharString index="249">
            -86 52 55 -21 279 57 70 62 hstem
            63 68 return
          </CharString>
          <CharString index="250">
            30 callgsubr
            88 205 hstem
            58 67 return
          </CharString>
          <CharString index="251">
            619 -100 callgsubr
            return
          </CharString>
          <CharString index="252">
            62 -36 20 99 158 hstemhm
            34 68 38 271 return
          </CharString>
          <CharString index="253">
            -37 callsubr
            72 205 hstem
            34 68 return
          </CharString>
          <CharString index="254">
            -185 37 148 40 return
          </CharString>
          <CharString index="255">
            hstem
            79 75 300 75 return
          </CharString>
          <CharString index="256">
            138 callgsubr
            hstem
            return
          </CharString>
          <CharString index="257">
            -200 52 169 -21 return
          </CharString>
          <CharString index="258">
            62 400 20 return
          </CharString>
          <CharString index="259">
            -16 -54 callsubr
            83 158 hstem
            34 68 return
          </CharString>
          <CharString index="260">
            -283 -81 46 320 46 320 46 hstemhm
            return
          </CharString>
          <CharString index="261">
            67 -62 callgsubr
            hintmask 0001001000000000
            return
          </CharString>
          <CharString index="262">
            21 260 63 275 63 return
          </CharString>
          <CharString index="263">
            429 53 162 53 hstem
            return
          </CharString>
          <CharString index="264">
            195 62 -464 return
          </CharString>
          <CharString index="265">
            46 33 34 46 vhcurveto
            return
          </CharString>
          <CharString index="266">
            -21 682 -20 return
          </CharString>
          <CharString index="267">
            -130 108 return
          </CharString>
          <CharString index="268">
            75 300 75 -62 callgsubr
            hintmask 0000011000000000
            return
          </CharString>
          <CharString index="269">
            55 callsubr
            -62 callgsubr
            return
          </CharString>
          <CharString index="270">
            -16 69 534 205 -163 68 hstemhm
            return
          </CharString>
          <CharString index="271">
            62 194 -20 hstem
            63 68 268 68 return
          </CharString>
          <CharString index="272">
            4 66 517 205 -172 66 hstemhm
            return
          </CharString>
          <CharString index="273">
            89 hhcurveto
            153 return
          </CharString>
        <CharString name=".notdef">
          -31 0 50 433 50 hstem
          50 50 300 50 vstem
          50 hmoveto
          400 533 -400 hlineto
          50 -483 rmoveto
          433 300 -433 vlineto
          endchar
        </CharString>
        <CharString name="A">
          45 21 -21 191 62 429 -20 hstem
          328 680 rmoveto
          1 2 rlineto
          -81 -2 hlineto
          -247 -680 rlineto
          80 hlineto
          69 191 rlineto
          276 hlineto
          70 -191 rlineto
          80 hlineto
          -288 570 rmoveto
          116 -317 rlineto
          -231 hlineto
          endchar
        </CharString>
        <CharString name="AE">
          241 0 62 129 62 87 61 218 63 hstem
          348 74 vstem
          163 191 rmoveto
          185 -191 385 62 -311 278 240 61 -240 218 308 63 -382 -2 hlineto
          -368 -680 rlineto
          80 hlineto
          137 253 rmoveto
          151 279 rlineto
          -279 vlineto
          endchar
        </CharString>
        <CharString name="Aacute">
          -51 callgsubr
          43 175 hstem
          209 250 vstem
          209 759 -89 callgsubr
          -97 -220 rmoveto
          1 2 rlineto
          -81 -2 hlineto
          -247 -680 rlineto
          80 hlineto
          69 191 rlineto
          276 hlineto
          70 -191 rlineto
          80 hlineto
          -288 570 rmoveto
          116 -317 rlineto
          -231 hlineto
          endchar
        </CharString>
        <CharString name="Abreve">
          -51 callgsubr
          36 61 57 20 hstem
          152 271 vstem
          382 856 -93 callsubr
          -95 -176 rmoveto
          1 2 rlineto
          -81 -2 hlineto
          -247 -680 rlineto
          80 hlineto
          69 191 rlineto
          276 hlineto
          70 -191 rlineto
          80 hlineto
          -288 570 rmoveto
          116 -317 rlineto
          -231 hlineto
          endchar
        </CharString>
        <CharString name="Acircumflex">
          -51 callgsubr
          43 158 hstem
          152 271 vstem
          171 725 -101 callsubr
          176 -79 rmoveto
          1 2 rlineto
          -81 -2 hlineto
          -247 -680 rlineto
          80 hlineto
          69 191 rlineto
          276 hlineto
          70 -191 rlineto
          80 hlineto
          -288 570 rmoveto
          116 -317 rlineto
          -231 hlineto
          endchar
        </CharString>
        <CharString name="Adieresis">
          -51 callgsubr
          35 108 hstem
          136 20 callgsubr
          331 771 rmoveto
          -30 24 -24 30 30 25 24 163 callgsubr
          -195 -16 callgsubr
          -24 30 30 25 24 163 callgsubr
          192 -91 rmoveto
          1 2 rlineto
          -81 -2 hlineto
          -247 -680 rlineto
          80 hlineto
          69 191 rlineto
          276 hlineto
          70 -191 rlineto
          80 hlineto
          -288 570 rmoveto
          116 -317 rlineto
          -231 hlineto
          endchar
        </CharString>
        <CharString name="Agrave">
          -51 callgsubr
          43 175 hstem
          116 250 vstem
          346 725 -81 callsubr
          212 -162 rmoveto
          1 2 rlineto
          -81 -2 hlineto
          -247 -680 rlineto
          80 hlineto
          69 191 rlineto
          276 hlineto
          70 -191 rlineto
          80 hlineto
          -288 570 rmoveto
          116 -317 rlineto
          -231 hlineto
          endchar
        </CharString>
        <CharString name="Alpha">
          -51 callgsubr
          hstem
          328 680 rmoveto
          1 2 rlineto
          -81 -2 hlineto
          -247 -680 rlineto
          80 hlineto
          69 191 rlineto
          276 hlineto
          70 -191 rlineto
          80 hlineto
          -288 570 rmoveto
          116 -317 rlineto
          -231 hlineto
          endchar
        </CharString>
        <CharString name="Alphatonos">
          64 0 -27 callgsubr
          347 205 -143 20 hstemhm
          55 150 88 callsubr
          55 616 -100 callgsubr
          hintmask 11010000
          203 -125 rmoveto
          1 2 rlineto
          -81 -2 hlineto
          -247 -680 rlineto
          80 hlineto
          69 191 rlineto
          276 hlineto
          70 -191 rlineto
          80 hlineto
          -288 570 rmoveto
          116 -317 rlineto
          -231 hlineto
          endchar
        </CharString>
        <CharString name="Amacron">
          -51 callgsubr
          62 45 hstem
          146 267 vstem
          146 29 callsubr
          -85 -109 rmoveto
          1 2 rlineto
          -81 -2 hlineto
          -247 -680 rlineto
          80 hlineto
          69 191 rlineto
          276 hlineto
          70 -191 rlineto
          80 hlineto
          -288 570 rmoveto
          116 -317 rlineto
          -231 hlineto
          endchar
        </CharString>
        <CharString name="Aogonek">
          44 -186 36 171 -21 191 62 429 -20 hstem
          381 65 vstem
          512 hmoveto
          64 hlineto
          -248 681 1 1 rlineto
          -81 -1 hlineto
          -247 -681 rlineto
          80 hlineto
          69 191 rlineto
          276 hlineto
          63 -170 rlineto
          -72 -16 -36 -37 -59 vvcurveto
          -63 42 -32 84 29 35 5 11 39 vhcurveto
          -7 26 rlineto
          -4 -19 -18 -2 -17 hhcurveto
          -69 -34 23 45 57 19 9 47 16 hvcurveto
          -223 570 rmoveto
          115 -317 rlineto
          -231 hlineto
          endchar
        </CharString>
        <CharString name="Aring">
          -51 callgsubr
          36 49 100 50 hstem
          188 50 99 50 vstem
          238 817 -75 callgsubr
          140 -137 rmoveto
          1 2 rlineto
          -81 -2 hlineto
          -247 -680 rlineto
          80 hlineto
          69 191 rlineto
          276 hlineto
          70 -191 rlineto
          80 hlineto
          -288 570 rmoveto
          116 -317 rlineto
          -231 hlineto
          endchar
        </CharString>
        <CharString name="Atilde">
          -51 callgsubr
          43 109 callsubr
          117 116 callgsubr
          hintmask 00010110
          347 792 rmoveto
          hintmask 00001110
          -38 -18 63 -61 hhcurveto
          hintmask 00010110
          -46 callsubr
          hintmask 00001110
          -17 callsubr
          hintmask 00010110
          38 18 -64 61 hhcurveto
          hintmask 00001110
          -78 callgsubr
          hintmask 11100000
          -19 -112 rmoveto
          1 2 rlineto
          -81 -2 hlineto
          -247 -680 rlineto
          80 hlineto
          69 191 rlineto
          276 hlineto
          70 -191 rlineto
          80 hlineto
          -288 570 rmoveto
          116 -317 rlineto
          -231 hlineto
          endchar
        </CharString>
        <CharString name="B">
          -79 callgsubr
        </CharString>
        <CharString name="Beta">
          -79 callgsubr
        </CharString>
        <CharString name="C">
          42 -30 callsubr
          hstem
          44 76 vstem
          546 144 rmoveto
          -87 callgsubr
          -41 callsubr
          hvcurveto
          endchar
        </CharString>
        <CharString name="Cacute">
          42 -30 callsubr
          28 175 hstem
          44 76 122 250 vstem
          242 759 -89 callgsubr
          88 -756 rmoveto
          -87 callgsubr
          -41 callsubr
          hvcurveto
          endchar
        </CharString>
        <CharString name="Ccaron">
          42 53 callsubr
          44 76 65 271 vstem
          437 883 -94 callsubr
          90 -705 rmoveto
          -87 callgsubr
          -41 callsubr
          hvcurveto
          endchar
        </CharString>
        <CharString name="Ccedilla">
          -53 callsubr
        </CharString>
        <CharString name="Ccircumflex">
          42 53 callsubr
          44 76 65 271 vstem
          204 725 -101 callsubr
          361 -615 rmoveto
          -87 callgsubr
          -41 callsubr
          hvcurveto
          endchar
        </CharString>
        <CharString name="Cdotaccent">
          42 53 callgsubr
          44 76 147 108 vstem
          267 771 rmoveto
          -30 23 -24 30 30 25 24 30 30 -25 24 -30 -30 -23 -84 callgsubr
          279 -627 rmoveto
          -87 callgsubr
          -41 callsubr
          hvcurveto
          endchar
        </CharString>
        <CharString name="Chi">
          -35 30 callsubr
          hstem
          290 349 rmoveto
          -67 callsubr
          84 hlineto
          endchar
        </CharString>
        <CharString name="D">
          79 0 68 545 69 hstem
          79 75 332 79 vstem
          79 hmoveto
          -73 callsubr
        </CharString>
        <CharString name="Dcaron">
          79 0 68 545 69 43 158 hstemhm
          79 75 -17 271 78 79 88 callsubr
          389 883 -94 callsubr
          hintmask 11010100
          -329 -849 rmoveto
          -73 callsubr
        </CharString>
        <CharString name="Dcroat">
          81 0 68 241 62 242 69 hstem
          81 75 332 79 vstem
          156 -58 callsubr
        </CharString>
        <CharString name="Delta">
          45 148 callgsubr
          328 680 rmoveto
          1 2 rlineto
          -81 -2 hlineto
          -247 -680 rlineto
          575 hlineto
          -288 570 rmoveto
          185 -508 rlineto
          -370 hlineto
          endchar
        </CharString>
        <CharString name="E">
          -28 0 16 callsubr
          vstem
          79 hmoveto
          -95 callgsubr
        </CharString>
        <CharString name="Eacute">
          142 callgsubr
          hstem
          79 75 53 250 vstem
          207 759 -89 callgsubr
          -344 -900 rmoveto
          -95 callgsubr
        </CharString>
        <CharString name="Ebreve">
          -37 callgsubr
          36 161 callgsubr
          79 75 -4 271 hintmask 00000000
          hintmask 00011010
          380 856 -93 callsubr
          hintmask 11100100
          -342 -856 rmoveto
          -95 callgsubr
        </CharString>
        <CharString name="Ecaron">
          34 callgsubr
          158 hstemhm
          79 75 -4 271 69 callgsubr
          402 883 -94 callsubr
          hintmask 11101000
          -342 -849 rmoveto
          -95 callgsubr
        </CharString>
        <CharString name="Ecircumflex">
          34 callgsubr
          158 hstemhm
          79 75 -4 271 69 callgsubr
          169 725 -101 callsubr
          hintmask 11101000
          -71 -759 rmoveto
          -95 callgsubr
        </CharString>
        <CharString name="Edieresis">
          -37 callgsubr
          35 108 hstemhm
          79 75 -20 109 86 137 callgsubr
          hintmask 00010110
          329 771 rmoveto
          -30 24 -24 30 30 25 24 163 callgsubr
          -195 -16 callgsubr
          -24 30 30 25 24 163 callgsubr
          hintmask 11101000
          -55 -771 rmoveto
          -95 callgsubr
        </CharString>
        <CharString name="Edotaccent">
          -37 callgsubr
          35 108 hstem
          79 75 78 108 vstem
          232 771 rmoveto
          -30 23 -24 30 30 25 24 30 30 -25 24 -30 -30 -23 -84 callgsubr
          -153 -771 rmoveto
          -95 callgsubr
        </CharString>
        <CharString name="Egrave">
          142 callgsubr
          hstemhm
          79 75 -40 250 69 callgsubr
          344 725 -81 callsubr
          hintmask 11101000
          -35 -842 rmoveto
          -95 callgsubr
        </CharString>
        <CharString name="Emacron">
          -37 callgsubr
          62 45 hstemhm
          79 75 -10 267 69 callgsubr
          144 29 callsubr
          hintmask 11101000
          -332 -789 rmoveto
          -95 callgsubr
        </CharString>
        <CharString name="Eng">
          90 0 62 567 68 -15 -20 hstemhm
          79 80 330 79 hintmask 00000000
          hintmask 11011000
          568 305 rmoveto
          93 vlineto
          145 callgsubr
          hintmask 10111000
          51 -75 -682 80 398 vlineto
          hintmask 11011000
          132 callgsubr
          -93 vlineto
          -149 -54 -94 -85 vhcurveto
          -28 -62 28 hlineto
          148 70 128 177 hvcurveto
          endchar
        </CharString>
        <CharString name="Eogonek">
          -28 -186 36 150 16 callsubr
          117 66 vstem
          337 -82 rmoveto
          83 callgsubr
          61 62 -310 278 240 61 -240 218 119 callgsubr
          246 hlineto
          -35 -20 -19 -30 -41 -84 callsubr
          endchar
        </CharString>
        <CharString name="Epsilon">
          -28 0 16 callsubr
          vstem
          79 hmoveto
          -95 callgsubr
        </CharString>
        <CharString name="Epsilontonos">
          66 137 callsubr
          199 205 -186 63 hstemhm
          -11 150 34 75 88 callsubr
          -11 616 -100 callgsubr
          hintmask 11010100
          95 -805 rmoveto
          -95 callgsubr
        </CharString>
        <CharString name="Eta">
          77 96 callsubr
          275 20 94 callsubr
          79 hmoveto
          -93 callgsubr
          endchar
        </CharString>
        <CharString name="Etatonos">
          159 96 callsubr
          213 205 -143 20 hstemhm
          -9 150 20 75 300 75 hintmask 00000000
          hintmask 11010110
          161 hmoveto
          -93 callgsubr
          hintmask 00101000
          -170 -66 -100 callgsubr
          endchar
        </CharString>
        <CharString name="Eth">
          81 0 68 241 62 242 69 hstem
          81 75 332 79 vstem
          156 -58 callsubr
        </CharString>
        <CharString name="Euro">
          41 -16 69 209 54 75 54 184 68 hstemhm
          64 76 -65 76 hintmask 00000000
          hintmask 11111000
          537 144 rmoveto
          -65 35 rlineto
          -70 -38 -36 -56 -73 hhcurveto
          -99 -61 93 116 -19 hvcurveto
          161 54 -166 hlineto
          8 -1 8 8 vvcurveto
          17 1 17 2 17 vhcurveto
          164 54 hlineto
          hintmask 11110100
          -156 hlineto
          104 23 60 80 91 hhcurveto
          68 34 13 callsubr
          85 -55 -56 55 -89 hhcurveto
          -124 -95 -109 -143 -31 hvcurveto
          -37 -54 29 hlineto
          hintmask 11111000
          -2 -17 -1 -17 -17 -8 1 -8 -8 vvcurveto
          -27 -54 32 hlineto
          -156 25 98 -122 132 hhcurveto
          96 61 108 callsubr
        </CharString>
        <CharString name="F">
          -52 21 -21 340 61 218 63 151 callgsubr
          75 340 240 61 -240 218 121 callsubr
          hlineto
          endchar
        </CharString>
        <CharString name="G">
          76 -16 54 callsubr
          hstem
          44 76 370 74 vstem
          329 291 -88 callgsubr
        </CharString>
        <CharString name="Gamma">
          -65 0 21 598 78 callsubr
        </CharString>
        <CharString name="Gbreve">
          76 -16 54 callsubr
          21 61 57 20 hstem
          44 76 68 271 31 74 vstem
          418 856 -93 callsubr
          -130 -565 -88 callgsubr
        </CharString>
        <CharString name="Gcaron">
          76 -16 54 callsubr
          28 158 hstem
          44 76 65 271 34 74 vstem
          437 883 -94 callsubr
          -127 -558 -88 callgsubr
        </CharString>
        <CharString name="Gcircumflex">
          76 -16 54 callsubr
          28 158 hstem
          44 76 68 271 31 74 vstem
          207 725 -101 callsubr
          141 -468 -88 callgsubr
        </CharString>
        <CharString name="Gcommaaccent">
          77 -260 222 22 54 callsubr
          hstem
          45 76 132 108 130 74 vstem
          253 -92 rmoveto
          -102 callsubr
          77 383 -88 callgsubr
        </CharString>
        <CharString name="Gdotaccent">
          76 -16 54 callsubr
          20 108 hstem
          44 76 150 108 112 74 vstem
          270 771 rmoveto
          -30 23 -24 30 30 25 24 30 30 -25 24 -30 -30 -23 -84 callgsubr
          59 -480 -88 callgsubr
        </CharString>
        <CharString name="H">
          77 21 -21 325 62 295 -20 94 callsubr
          79 hmoveto
          -93 callgsubr
          endchar
        </CharString>
        <CharString name="Hbar">
          77 21 -21 325 62 142 38 115 -20 94 callsubr
          529 529 rmoveto
          45 38 -45 115 -75 -115 -300 115 -75 -115 -43 -38 43 -529 -61 callsubr
          75 hlineto
          -75 529 rmoveto
          -142 -300 142 vlineto
          endchar
        </CharString>
        <CharString name="Hcircumflex">
          77 96 callsubr
          275 20 43 158 hstem
          79 75 18 271 11 75 vstem
          191 725 -101 callsubr
          -93 -759 rmoveto
          -93 callgsubr
          endchar
        </CharString>
        <CharString name="I">
          -34 callsubr
          hstem
          53 147 vstem
          164 98 callgsubr
          endchar
        </CharString>
        <CharString name="Iacute">
          -34 callsubr
          43 175 hstemhm
          49 250 -246 147 136 callsubr
          49 759 -89 callgsubr
          hintmask 11001000
          -101 -284 -92 callgsubr
          endchar
        </CharString>
        <CharString name="Ibreve">
          -34 callsubr
          36 161 callgsubr
          -8 271 -210 89 callgsubr
          hintmask 00111000
          222 856 -93 callsubr
          hintmask 11000100
          -99 -240 -92 callgsubr
          endchar
        </CharString>
        <CharString name="Icircumflex">
          -34 callsubr
          43 158 hstemhm
          -9 271 -209 147 136 callsubr
          10 725 -101 callsubr
          hintmask 11001000
          173 -143 -92 callgsubr
          endchar
        </CharString>
        <CharString name="Idieresis">
          -34 callsubr
          35 108 hstemhm
          -24 109 -32 147 -29 137 callgsubr
          hintmask 00110100
          171 771 rmoveto
          -30 24 -24 30 30 25 24 163 callgsubr
          -195 -16 callgsubr
          -24 30 30 25 24 163 callgsubr
          hintmask 11001000
          188 -155 -92 callgsubr
          endchar
        </CharString>
        <CharString name="Idotaccent">
          -34 callsubr
          35 108 hstemhm
          53 147 -126 108 88 callsubr
          74 771 rmoveto
          -30 23 -24 30 30 25 24 30 30 -25 24 -30 -30 -23 -84 callgsubr
          hintmask 11010000
          90 -155 -92 callgsubr
          endchar
        </CharString>
        <CharString name="Igrave">
          -34 callsubr
          43 175 hstemhm
          -44 250 -153 147 136 callsubr
          186 725 -81 callsubr
          hintmask 11001000
          208 -226 -92 callgsubr
          endchar
        </CharString>
        <CharString name="Imacron">
          0 callsubr
        </CharString>
        <CharString name="Iogonek">
          -278 -186 36 150 66 550 66 hstemhm
          53 147 -132 66 166 callgsubr
          134 -82 rmoveto
          hintmask 11110000
          83 callgsubr
          66 -36 550 36 66 -147 -66 36 -550 -36 -66 70 vlineto
          hintmask 11101000
          -35 -20 -20 -30 -41 -84 callsubr
          endchar
        </CharString>
        <CharString name="Iota">
          -34 callsubr
          hstem
          53 147 vstem
          164 98 callgsubr
          endchar
        </CharString>
        <CharString name="Iotadieresis">
          -34 callsubr
          35 108 hstemhm
          -24 109 -32 147 -29 137 callgsubr
          hintmask 00110100
          171 771 rmoveto
          -30 24 -24 30 30 25 24 163 callgsubr
          -195 -16 callgsubr
          -24 30 30 25 24 163 callgsubr
          hintmask 11001000
          188 -155 -92 callgsubr
          endchar
        </CharString>
        <CharString name="Iotatonos">
          -149 0 66 534 205 -189 66 hstemhm
          -10 150 42 89 callgsubr
          hintmask 10101000
          293 98 callgsubr
          hintmask 01010000
          -303 550 -100 callgsubr
          endchar
        </CharString>
        <CharString name="Itilde">
          -34 callsubr
          43 109 callsubr
          -43 45 51 147 54 46 hintmask 00000000
          hintmask 00101010
          187 792 rmoveto
          hintmask 00011010
          -38 -18 63 -61 hhcurveto
          hintmask 00101010
          -46 callsubr
          hintmask 00011010
          -17 callsubr
          hintmask 00101010
          38 18 -64 61 hhcurveto
          hintmask 00011010
          -78 callgsubr
          hintmask 11000100
          -23 -176 -92 callgsubr
          endchar
        </CharString>
        <CharString name="J">
          -41 -16 70 628 -20 hstem
          341 75 vstem
          75 157 -19 callgsubr
        </CharString>
        <CharString name="Jcircumflex">
          -41 -16 70 608 20 43 158 hstemhm
          245 271 -175 75 136 callsubr
          264 725 -101 callsubr
          hintmask 11001000
          -170 -602 -19 callgsubr
        </CharString>
        <CharString name="K">
          2 21 -21 682 -20 151 callgsubr
          -48 callgsubr
        </CharString>
        <CharString name="Kappa">
          2 30 callsubr
          151 callgsubr
          -48 callgsubr
        </CharString>
        <CharString name="Kcommaaccent">
          1 42 callgsubr
          641 20 hstem
          79 75 92 108 vstem
          246 -92 rmoveto
          -102 callsubr
          -167 92 rmoveto
          -48 callgsubr
        </CharString>
        <CharString name="L">
          -95 0 62 620 -20 151 callgsubr
          5 callsubr
        </CharString>
        <CharString name="Lacute">
          -95 0 62 600 20 43 175 hstemhm
          39 250 -210 75 136 callsubr
          39 759 -89 callgsubr
          hintmask 11001000
          -176 -900 rmoveto
          5 callsubr
        </CharString>
        <CharString name="Lambda">
          45 30 callsubr
          hstem
          288 570 rmoveto
          208 -570 rlineto
          80 hlineto
          -248 680 1 2 rlineto
          -81 -2 hlineto
          -247 -680 rlineto
          80 hlineto
          endchar
        </CharString>
        <CharString name="Lcaron">
          -93 0 62 406 222 -28 20 hstemhm
          79 75 103 108 hintmask 00000000
          hintmask 01001000
          257 636 rmoveto
          -102 callsubr
          hintmask 10110000
          -178 -636 rmoveto
          5 callsubr
        </CharString>
        <CharString name="Lcommaaccent">
          -95 -260 222 38 62 600 20 hstem
          79 75 47 108 vstem
          201 -92 rmoveto
          -102 callsubr
          -122 92 rmoveto
          5 callsubr
        </CharString>
        <CharString name="Ldot">
          -60 0 62 231 109 260 20 hstem
          79 75 159 108 vstem
          313 348 rmoveto
          -77 callsubr
          -234 -348 rmoveto
          5 callsubr
        </CharString>
        <CharString name="Lslash">
          -90 148 callgsubr
          84 75 vstem
          159 392 rmoveto
          107 75 -23 32 -84 -59 rlineto
          242 -75 -294 vlineto
          -79 -56 23 -32 56 39 rlineto
          -339 342 62 -267 vlineto
          endchar
        </CharString>
        <CharString name="M">
          262 56 callsubr
          79 75 486 74 vstem
          79 hmoveto
          -50 callsubr
        </CharString>
        <CharString name="Mu">
          262 30 callsubr
          hstem
          79 75 486 74 vstem
          79 hmoveto
          -50 callsubr
        </CharString>
        <CharString name="N">
          98 56 callsubr
          79 75 322 74 vstem
          79 hmoveto
          -86 callsubr
        </CharString>
        <CharString name="Nacute">
          98 30 callsubr
          43 175 hstemhm
          79 75 87 250 -15 74 88 callsubr
          241 759 -89 callgsubr
          hintmask 11010100
          -378 -900 rmoveto
          -86 callsubr
        </CharString>
        <CharString name="Ncaron">
          98 30 callsubr
          43 158 hstem
          79 75 30 271 21 74 vstem
          436 883 -94 callsubr
          -376 -849 rmoveto
          -86 callsubr
        </CharString>
        <CharString name="Ncommaaccent">
          98 42 callgsubr
          641 20 hstem
          79 75 100 108 114 74 vstem
          254 -92 rmoveto
          -102 callsubr
          -175 92 rmoveto
          -86 callsubr
        </CharString>
        <CharString name="Ntilde">
          98 30 callsubr
          43 109 callsubr
          79 75 -5 125 callgsubr
          -16 74 hintmask 00000000
          hintmask 00100110
          379 792 -68 callsubr
          -300 -792 rmoveto
          -86 callsubr
        </CharString>
        <CharString name="Nu">
          98 30 callsubr
          hstem
          79 75 322 74 vstem
          79 hmoveto
          -86 callsubr
        </CharString>
        <CharString name="O">
          -12 callgsubr
          95 callgsubr
          121 340 -106 callgsubr
          endchar
        </CharString>
        <CharString name="OE">
          299 -16 69 -53 -23 callgsubr
          -53 68 hstemhm
          42 79 285 75 hintmask 00000000
          hintmask 01110110
          418 hmoveto
          373 62 -310 278 240 61 -240 218 307 63 -373 hlineto
          hintmask 10101110
          10 -26 -26 5 -28 hhcurveto
          -82 callgsubr
          -192 140 -164 153 28 28 6 10 27 hvcurveto
          -12 70 rmoveto
          -11 -22 -24 -6 -25 hhcurveto
          -75 callsubr
          -9 callsubr
          139 120 25 24 -5 -11 22 hvcurveto
          endchar
        </CharString>
        <CharString name="Oacute">
          99 callsubr
          175 hstem
          42 79 136 250 42 79 vstem
          257 759 -89 callgsubr
          -352 -560 -106 callgsubr
          endchar
        </CharString>
        <CharString name="Obreve">
          -12 callgsubr
          21 61 57 20 hstem
          42 79 79 271 78 79 vstem
          430 856 -93 callsubr
          -350 -516 -106 callgsubr
          endchar
        </CharString>
        <CharString name="Ocircumflex">
          139 53 callsubr
          42 79 79 271 78 79 vstem
          219 725 -101 callsubr
          -79 -419 -106 callgsubr
          endchar
        </CharString>
        <CharString name="Odieresis">
          -64 callgsubr
        </CharString>
        <CharString name="Ograve">
          99 callsubr
          175 hstem
          42 79 43 250 135 79 vstem
          394 725 -81 callsubr
          -43 -502 -106 callgsubr
          endchar
        </CharString>
        <CharString name="Ohungarumlaut">
          -12 callgsubr
          21 219 95 callgsubr
          389 745 -64 callsubr
          -268 -597 -106 callgsubr
          endchar
        </CharString>
        <CharString name="Omacron">
          -12 callgsubr
          47 45 hstem
          42 79 73 267 88 79 vstem
          194 29 callsubr
          -340 -449 -106 callgsubr
          endchar
        </CharString>
        <CharString name="Omega">
          149 0 55 574 69 hstem
          47 124 callgsubr
          528 55 -105 callgsubr
        </CharString>
        <CharString name="Omegatonos">
          204 0 55 545 205 -176 69 hstemhm
          8 150 -56 40 callsubr
          hintmask 01010000
          8 616 -100 callgsubr
          hintmask 10101100
          486 -750 -105 callgsubr
        </CharString>
        <CharString name="Omicron">
          -12 callgsubr
          95 callgsubr
          121 340 -106 callgsubr
          endchar
        </CharString>
        <CharString name="Omicrontonos">
          173 -16 69 547 205 -176 68 hstemhm
          12 150 -86 40 callsubr
          hintmask 01010000
          12 616 -100 callgsubr
          hintmask 10101100
          54 -465 -106 callgsubr
          endchar
        </CharString>
        <CharString name="Oslash">
          141 104 callsubr
          43 40 callsubr
          hintmask 10001100
          507 511 19 callgsubr
          hintmask 00101100
          65 callsubr
          hintmask 01001100
          -92 -111 rlineto
          62 hlineto
          61 74 rlineto
          hintmask 10011100
          42 callsubr
          hintmask 01101100
          55 -52 -67 33 -69 104 callgsubr
          endchar
        </CharString>
        <CharString name="Oslashacute">
          141 -16 69 -53 21 608 68 -35 20 43 175 hstemhm
          43 79 136 250 42 79 hintmask 00000000
          hintmask 00001010
          258 759 -89 callgsubr
          hintmask 10000101
          33 -389 19 callgsubr
          hintmask 00100101
          65 callsubr
          hintmask 01000101
          -92 -111 rlineto
          62 hlineto
          61 74 rlineto
          hintmask 10010101
          42 callsubr
          hintmask 01100101
          55 -52 -67 33 -69 104 callgsubr
          endchar
        </CharString>
        <CharString name="Otilde">
          99 callsubr
          109 callsubr
          42 79 44 125 callgsubr
          41 79 hintmask 00000000
          hintmask 00100110
          395 792 -68 callsubr
          -274 -452 -106 callgsubr
          endchar
        </CharString>
        <CharString name="P">
          26 21 -21 281 63 275 34 callsubr
          -45 callsubr
          -77 callgsubr
        </CharString>
        <CharString name="Phi">
          107 0 21 54 70 392 69 56 20 -45 callgsubr
        </CharString>
        <CharString name="Pi">
          23 callgsubr
        </CharString>
        <CharString name="Psi">
          72 21 -21 242 71 369 -20 hstem
          32 80 153 75 152 79 vstem
          32 539 rmoveto
          -176 99 -105 134 -16 vhcurveto
          -242 75 242 vlineto
          134 16 97 105 176 vvcurveto
          143 -79 -143 vlineto
          -111 -55 -95 -97 -20 vhcurveto
          369 -75 -369 vlineto
          -97 19 -56 95 112 vvcurveto
          143 -80 vlineto
          endchar
        </CharString>
        <CharString name="Q">
          -12 callgsubr
          95 callgsubr
          146 callgsubr
          56 54 22 37 46 vhcurveto
          73 -72 44 43 -72 72 rlineto
          56 65 36 91 98 vvcurveto
          -54 callgsubr
          165 -153 -82 callgsubr
          vhcurveto
          79 hmoveto
          -9 callsubr
          139 -11 callsubr
          -139 -150 -77 -24 -73 -40 -53 vhcurveto
          -75 74 -44 -44 76 -75 rlineto
          -25 -31 -37 -14 -39 hhcurveto
          -75 callsubr
          hvcurveto
          endchar
        </CharString>
        <CharString name="R">
          50 21 -21 281 63 275 34 callsubr
          81 callsubr
          1 hlineto
          -60 callsubr
          -77 callgsubr
        </CharString>
        <CharString name="Racute">
          50 0 155 callsubr
          43 175 hstemhm
          79 75 67 250 -17 82 69 callgsubr
          221 759 -89 callgsubr
          hintmask 11101010
          -358 -900 rmoveto
          81 callsubr
          1 hlineto
          -60 callsubr
          -77 callgsubr
        </CharString>
        <CharString name="Rcaron">
          50 0 155 callsubr
          43 158 hstem
          79 75 10 271 19 82 vstem
          416 883 -94 callsubr
          -356 -849 rmoveto
          81 callsubr
          1 hlineto
          -60 callsubr
          -77 callgsubr
        </CharString>
        <CharString name="Rcommaaccent">
          49 -260 222 38 155 callsubr
          hstem
          79 75 87 108 105 82 vstem
          241 -92 rmoveto
          -102 callsubr
          -162 92 rmoveto
          81 callsubr
          1 hlineto
          -60 callsubr
          -77 callgsubr
        </CharString>
        <CharString name="Rho">
          28 0 21 260 63 275 34 callsubr
          -45 callsubr
          -77 callgsubr
        </CharString>
        <CharString name="S">
          21 -30 callsubr
          hstem
          57 76 305 76 vstem
          278 307 -99 callsubr
        </CharString>
        <CharString name="Sacute">
          21 -30 callsubr
          28 175 hstemhm
          57 76 68 250 -13 76 88 callsubr
          201 759 -89 callgsubr
          hintmask 11010100
          -139 -593 -99 callsubr
        </CharString>
        <CharString name="Scaron">
          21 53 callsubr
          57 76 11 271 23 76 vstem
          396 883 -94 callsubr
          -137 -542 -99 callsubr
        </CharString>
        <CharString name="Scedilla">
          23 62 callsubr
          697 68 hstem
          58 76 178 65 62 76 vstem
          279 307 rmoveto
          105 -28 55 -25 -84 vvcurveto
          -80 -55 -37 -120 -68 -66 50 64 -39 vhcurveto
          -59 -42 51 -79 80 -54 82 -7 rlinecurve
          -41 -88 -72 callgsubr
          26 53 rlineto
          135 9 84 64 112 vvcurveto
          146 -111 28 -109 37 vhcurveto
          -78 26 -83 9 96 vvcurveto
          80 39 37 104 68 49 -35 -61 45 vhcurveto
          56 47 rlineto
          80 -62 -67 37 -89 hhcurveto
          -139 -80 -64 -121 -117 90 -53 131 -35 hvcurveto
          endchar
        </CharString>
        <CharString name="Scircumflex">
          21 53 callsubr
          57 76 11 271 23 76 vstem
          163 725 -101 callsubr
          134 -452 -99 callsubr
        </CharString>
        <CharString name="Scommaaccent">
          22 -260 222 22 -6 callsubr
          hstem
          58 76 85 108 112 76 vstem
          219 -92 rmoveto
          -102 callsubr
          60 399 -99 callsubr
        </CharString>
        <CharString name="Sigma">
          10 callsubr
        </CharString>
        <CharString name="T">
          -29 21 -21 620 124 callsubr
          vstem
          101 callsubr
          endchar
        </CharString>
        <CharString name="Tau">
          -29 0 21 599 124 callsubr
          vstem
          101 callsubr
          endchar
        </CharString>
        <CharString name="Tbar">
          -29 21 -21 424 44 152 124 callsubr
          vstem
          19 620 rmoveto
          195 -152 -72 -44 72 -424 74 424 72 44 -72 152 157 callsubr
          hlineto
          endchar
        </CharString>
        <CharString name="Tcaron">
          -29 0 21 599 62 43 158 hstemhm
          115 271 -172 74 136 callsubr
          367 883 -94 callsubr
          hintmask 11001000
          -367 -229 -52 callgsubr
          endchar
        </CharString>
        <CharString name="Tcommaaccent">
          -28 callgsubr
        </CharString>
        <CharString name="Theta">
          139 -16 69 260 55 261 68 95 callgsubr
          121 340 -106 callgsubr
          144 28 rmoveto
          -55 296 55 vlineto
          endchar
        </CharString>
        <CharString name="Thorn">
          -18 21 -21 171 61 218 63 169 -20 hstem
          79 75 259 82 vstem
          79 hmoveto
          75 171 134 hlineto
          115 92 69 102 102 -94 69 -115 hvcurveto
          -132 169 -75 hlineto
          75 -232 rmoveto
          132 hlineto
          86 41 -55 -53 -53 -41 -57 -86 hvcurveto
          -132 hlineto
          endchar
        </CharString>
        <CharString name="U">
          104 -16 69 629 -20 hstem
          73 80 330 79 vstem
          73 283 -92 callsubr
        </CharString>
        <CharString name="Uacute">
          41 callgsubr
          43 175 hstemhm
          73 80 86 250 -6 79 88 callsubr
          239 759 -89 callgsubr
          hintmask 11010100
          -382 -617 -92 callsubr
        </CharString>
        <CharString name="Ubreve">
          41 callgsubr
          36 61 57 20 hstem
          73 80 29 271 30 79 vstem
          412 856 -93 callsubr
          -380 -573 -92 callsubr
        </CharString>
        <CharString name="Ucircumflex">
          41 callgsubr
          43 158 hstem
          73 80 29 271 30 79 vstem
          201 725 -101 callsubr
          -109 -476 -92 callsubr
        </CharString>
        <CharString name="Udieresis">
          41 callgsubr
          35 108 hstem
          73 80 13 -57 callsubr
          13 79 vstem
          361 771 rmoveto
          -30 24 -24 30 30 25 24 163 callgsubr
          -195 -16 callgsubr
          -24 30 30 25 24 163 callgsubr
          -93 -488 -92 callsubr
        </CharString>
        <CharString name="Ugrave">
          41 callgsubr
          43 175 hstemhm
          73 80 -7 250 87 79 88 callsubr
          376 725 -81 callsubr
          hintmask 11010100
          -73 -559 -92 callsubr
        </CharString>
        <CharString name="Uhungarumlaut">
          41 callgsubr
          36 219 hstem
          73 80 330 79 vstem
          371 745 -64 callsubr
          -298 -654 -92 callsubr
        </CharString>
        <CharString name="Umacron">
          41 callgsubr
          62 45 hstem
          73 80 23 267 40 79 vstem
          176 29 callsubr
          -370 -506 -92 callsubr
        </CharString>
        <CharString name="Uogonek">
          104 -186 36 134 69 629 -20 hstem
          73 80 121 66 143 79 vstem
          340 -82 rmoveto
          38 7 19 35 16 vhcurveto
          114 27 66 102 163 vvcurveto
          399 -79 -399 vlineto
          -125 -45 -105 109 callgsubr
          -45 105 125 vhcurveto
          399 -80 -399 vlineto
          -187 88 -107 146 -5 vhcurveto
          -21 -19 -12 -25 59 callgsubr
          endchar
        </CharString>
        <CharString name="Upsilon">
          -58 30 callsubr
          hstem
          199 74 vstem
          237 432 -96 callsubr
          endchar
        </CharString>
        <CharString name="Upsilondieresis">
          -58 30 callsubr
          35 108 hstem
          85 109 5 74 7 109 vstem
          280 771 rmoveto
          -30 24 -24 30 30 25 24 163 callgsubr
          -195 -16 callgsubr
          -24 30 30 25 24 163 callgsubr
          152 -339 -96 callsubr
          endchar
        </CharString>
        <CharString name="Upsilontonos">
          128 0 21 579 205 -143 20 hstemhm
          20 150 215 74 hintmask 00000000
          hintmask 10101000
          423 432 -96 callsubr
          hintmask 01010000
          -553 -66 -100 callgsubr
          endchar
        </CharString>
        <CharString name="Uring">
          41 callgsubr
          36 49 100 50 hstem
          73 80 65 50 99 50 66 79 vstem
          268 817 -75 callgsubr
          -145 -534 -92 callsubr
        </CharString>
        <CharString name="Utilde">
          41 callgsubr
          43 109 callsubr
          73 80 -6 125 callgsubr
          -7 79 hintmask 00000000
          hintmask 00100110
          377 792 -68 callsubr
          -304 -509 -92 callsubr
        </CharString>
        <CharString name="V">
          42 56 callsubr
          246 1 rmoveto
          -1 81 vlineto
          -1 1 248 681 rlineto
          -80 hlineto
          -208 -571 -207 571 rlineto
          -80 hlineto
          endchar
        </CharString>
        <CharString name="W">
          320 56 callsubr
          281 hmoveto
          -76 callgsubr
        </CharString>
        <CharString name="Wacute">
          320 30 callsubr
          43 175 hstem
          368 250 vstem
          368 759 -89 callgsubr
          -303 -900 rmoveto
          -76 callgsubr
        </CharString>
        <CharString name="Wcircumflex">
          320 30 callsubr
          43 158 hstem
          291 271 vstem
          310 725 -101 callsubr
          -10 -759 rmoveto
          -76 callgsubr
        </CharString>
        <CharString name="Wdieresis">
          320 30 callsubr
          29 108 hstem
          275 20 callgsubr
          470 765 rmoveto
          -30 24 -24 30 30 25 24 163 callgsubr
          -195 -16 callgsubr
          -24 30 30 25 24 163 callgsubr
          6 -765 rmoveto
          -76 callgsubr
        </CharString>
        <CharString name="Wgrave">
          320 30 callsubr
          43 175 hstem
          238 250 vstem
          468 725 -81 callsubr
          43 -842 rmoveto
          -76 callgsubr
        </CharString>
        <CharString name="X">
          -35 56 callsubr
          290 349 rmoveto
          -67 callsubr
          84 hlineto
          endchar
        </CharString>
        <CharString name="Xi">
          1 0 62 272 62 224 62 hstem
          110 396 rmoveto
          -62 313 62 vlineto
          -383 286 rmoveto
          -62 453 62 vlineto
          -453 -620 rmoveto
          -62 453 62 vlineto
          endchar
        </CharString>
        <CharString name="Y">
          -58 56 callsubr
          199 74 vstem
          237 432 -96 callsubr
          endchar
        </CharString>
        <CharString name="Yacute">
          164 callgsubr
          158 250 -209 74 136 callsubr
          158 759 -89 callgsubr
          hintmask 11001000
          -137 -468 -96 callsubr
          endchar
        </CharString>
        <CharString name="Ycircumflex">
          -58 30 callsubr
          43 158 hstemhm
          101 271 -173 74 136 callsubr
          120 725 -101 callsubr
          hintmask 11001000
          136 -327 -96 callsubr
          endchar
        </CharString>
        <CharString name="Ydieresis">
          -58 30 callsubr
          35 108 hstem
          85 109 5 74 7 109 vstem
          280 771 rmoveto
          -30 24 -24 30 30 25 24 163 callgsubr
          -195 -16 callgsubr
          -24 30 30 25 24 163 callgsubr
          152 -339 -96 callsubr
          endchar
        </CharString>
        <CharString name="Ygrave">
          164 callgsubr
          33 250 -84 74 136 callsubr
          263 725 -81 callsubr
          hintmask 11001000
          204 -410 -96 callsubr
          endchar
        </CharString>
        <CharString name="Z">
          -28 105 callgsubr
          hstem
          38 620 -60 callgsubr
        </CharString>
        <CharString name="Zacute">
          -28 105 callgsubr
          43 175 hstem
          182 250 vstem
          182 759 -89 callgsubr
          -360 -280 -60 callgsubr
        </CharString>
        <CharString name="Zcaron">
          -28 105 callgsubr
          43 158 hstem
          125 271 vstem
          377 883 -94 callsubr
          -358 -229 -60 callgsubr
        </CharString>
        <CharString name="Zdotaccent">
          -28 105 callgsubr
          35 108 hstem
          207 108 vstem
          207 771 rmoveto
          -30 23 -24 30 30 25 24 30 30 -25 24 -30 -30 -23 -84 callgsubr
          -169 -151 -60 callgsubr
        </CharString>
        <CharString name="Zeta">
          -28 105 callgsubr
          hstem
          38 620 -60 callgsubr
        </CharString>
        <CharString name="a">
          30 -16 62 -25 -21 422 93 callgsubr
          hintmask 10001100
          34 234 rmoveto
          -98 callsubr
          59 59 29 48 44 vhcurveto
          hintmask 01011100
          -33 callgsubr
          hintmask 10101100
          -102 callgsubr
        </CharString>
        <CharString name="aacute">
          51 callsubr
          139 callgsubr
          95 250 -17 -55 callsubr
          hintmask 00001010
          197 601 -89 callgsubr
          hintmask 10000101
          -379 -508 rmoveto
          -98 callsubr
          59 59 29 48 44 vhcurveto
          hintmask 01010101
          -33 callgsubr
          hintmask 10100101
          -102 callgsubr
        </CharString>
        <CharString name="abreve">
          -40 callsubr
          92 161 callgsubr
          34 68 38 271 19 68 -62 callgsubr
          hintmask 0000110100000000
          370 698 -93 callsubr
          hintmask 1000001010000000
          -377 -464 rmoveto
          -98 callsubr
          59 59 29 48 44 vhcurveto
          hintmask 0101001010000000
          -33 callgsubr
          hintmask 1010001010000000
          -102 callgsubr
        </CharString>
        <CharString name="acircumflex">
          30 -16 62 -46 21 401 145 callsubr
          19 -55 callsubr
          hintmask 00001010
          159 567 -101 callsubr
          hintmask 10000101
          -106 -367 rmoveto
          -98 callsubr
          59 59 29 48 44 vhcurveto
          hintmask 01010101
          -33 callgsubr
          hintmask 10100101
          -102 callgsubr
        </CharString>
        <CharString name="acute">
          -143 138 callsubr
          58 250 vstem
          58 601 -89 callgsubr
          endchar
        </CharString>
        <CharString name="acutecomb">
          -531 138 callsubr
          -390 250 vstem
          -390 601 -89 callgsubr
          endchar
        </CharString>
        <CharString name="adieresis">
          -40 callsubr
          91 108 hstemhm
          34 68 22 -57 callsubr
          2 68 -62 callgsubr
          hintmask 0000101100000000
          319 -103 callsubr
          hintmask 1000010010000000
          -90 32 callsubr
          hintmask 0101010010000000
          -33 callgsubr
          hintmask 1010010010000000
          -102 callgsubr
        </CharString>
        <CharString name="ae">
          336 -16 62 185 59 131 62 hstem
          27 75 272 69 vstem
          111 -66 callsubr
        </CharString>
        <CharString name="afii10017">
          -51 callgsubr
          hstem
          328 680 rmoveto
          1 2 rlineto
          -81 -2 hlineto
          -247 -680 rlineto
          80 hlineto
          69 191 rlineto
          276 hlineto
          70 -191 rlineto
          80 hlineto
          -288 570 rmoveto
          116 -317 rlineto
          -231 hlineto
          endchar
        </CharString>
        <CharString name="afii10018">
          37 140 callgsubr
          219 34 callsubr
          220 hlineto
          -43 callsubr
          219 327 63 -402 hlineto
          75 -344 rmoveto
          143 hlineto
          13 callgsubr
          endchar
        </CharString>
        <CharString name="afii10019">
          -79 callgsubr
        </CharString>
        <CharString name="afii10020">
          -65 21 -21 619 78 callsubr
        </CharString>
        <CharString name="afii10021">
          106 122 callgsubr
          558 62 hstemhm
          8 75 99 75 215 75 -37 75 hintmask 00000000
          hintmask 01111100
          83 hmoveto
          389 hlineto
          hintmask 01111010
          38 hlineto
          hintmask 10111010
          -82 75 144 vlineto
          hintmask 10111100
          -38 620 -365 hlineto
          -258 -56 -234 -53 -128 vhcurveto
          -65 -144 75 hlineto
          hintmask 01111100
          73 144 rmoveto
          39 99 62 195 264 vvcurveto
          215 -558 hlineto
          endchar
        </CharString>
        <CharString name="afii10022">
          -28 0 16 callsubr
          vstem
          79 hmoveto
          -95 callgsubr
        </CharString>
        <CharString name="afii10023">
          -37 callgsubr
          35 108 hstemhm
          79 75 -20 109 86 137 callgsubr
          hintmask 00010110
          329 771 rmoveto
          -30 24 -24 30 30 25 24 163 callgsubr
          -195 -16 callgsubr
          -24 30 30 25 24 163 callgsubr
          hintmask 11101000
          -55 -771 rmoveto
          -95 callgsubr
        </CharString>
        <CharString name="afii10024">
          341 28 callsubr
          hstem
          22 91 286 75 286 91 cntrmask 00011100
          42 608 -83 callsubr
          endchar
        </CharString>
        <CharString name="afii10025">
          -18 -16 118 callgsubr
          hstemhm
          372 155 callgsubr
          369 365 -28 callsubr
          hintmask 11101000
          12 callgsubr
        </CharString>
        <CharString name="afii10026">
          98 56 callsubr
          79 74 322 75 vstem
          550 hmoveto
          682 -75 vlineto
          -47 callsubr
        </CharString>
        <CharString name="afii10027">
          98 62 callgsubr
          57 45 hstem
          79 74 18 167 callgsubr
          6 75 vstem
          333 719 -89 callsubr
          243 -719 rmoveto
          682 -75 vlineto
          -47 callsubr
        </CharString>
        <CharString name="afii10028">
          21 28 callsubr
          hstem
          79 75 286 91 vstem
          79 hmoveto
          75 304 hlineto
          -85 callsubr
          304 -75 vlineto
          endchar
        </CharString>
        <CharString name="afii10029">
          108 105 callgsubr
          hstem
          141 75 269 75 vstem
          216 148 rmoveto
          472 269 -620 75 682 -419 -534 vlineto
          67 callgsubr
          66 66 82 hvcurveto
          endchar
        </CharString>
        <CharString name="afii10030">
          262 30 callsubr
          hstem
          79 75 486 74 vstem
          79 hmoveto
          -50 callsubr
        </CharString>
        <CharString name="afii10031">
          77 96 callsubr
          275 20 94 callsubr
          79 hmoveto
          -93 callgsubr
          endchar
        </CharString>
        <CharString name="afii10032">
          -12 callgsubr
          95 callgsubr
          121 340 -106 callgsubr
          endchar
        </CharString>
        <CharString name="afii10033">
          23 callgsubr
        </CharString>
        <CharString name="afii10034">
          28 0 21 260 63 275 34 callsubr
          -45 callsubr
          -77 callgsubr
        </CharString>
        <CharString name="afii10035">
          42 -30 callsubr
          hstem
          44 76 vstem
          546 144 rmoveto
          -87 callgsubr
          -41 callsubr
          hvcurveto
          endchar
        </CharString>
        <CharString name="afii10036">
          -29 0 21 599 124 callsubr
          vstem
          101 callsubr
          endchar
        </CharString>
        <CharString name="afii10037">
          -84 148 callgsubr
          446 682 -65 callgsubr
        </CharString>
        <CharString name="afii10038">
          107 21 -21 75 70 392 69 76 -20 -45 callgsubr
        </CharString>
        <CharString name="afii10039">
          -35 30 callsubr
          hstem
          290 349 rmoveto
          -67 callsubr
          84 hlineto
          endchar
        </CharString>
        <CharString name="afii10040">
          148 122 callgsubr
          620 -20 hstemhm
          79 75 340 75 -4 75 hintmask 00000000
          hintmask 10110100
          640 62 rmoveto
          130 callsubr
          620 -75 -682 vlineto
          hintmask 01110100
          486 hlineto
          hintmask 10110100
          -82 75 vlineto
          endchar
        </CharString>
        <CharString name="afii10041">
          54 21 -21 113 callsubr
          323 76 vstem
          430 524 15 callsubr
        </CharString>
        <CharString name="afii10042">
          352 148 callgsubr
          79 75 250 75 250 75 cntrmask 00111000
          804 682 rmoveto
          -75 119 callsubr
          119 callsubr
          -682 725 hlineto
          endchar
        </CharString>
        <CharString name="afii10043">
          384 122 callgsubr
          620 -20 hstemhm
          79 75 250 75 250 75 -3 75 hintmask 00000000
          hintmask 10111010
          876 62 rmoveto
          hintmask 10111100
          -72 620 -75 hlineto
          hintmask 01111100
          119 callsubr
          119 callsubr
          -682 vlineto
          hintmask 01111010
          722 hlineto
          hintmask 10111010
          -82 75 vlineto
          endchar
        </CharString>
        <CharString name="afii10044">
          97 140 callgsubr
          219 63 hstem
          150 75 300 82 vstem
          225 338 rmoveto
          143 hlineto
          13 callgsubr
          145 -62 rmoveto
          89 callsubr
          -216 -63 141 -619 hlineto
          endchar
        </CharString>
        <CharString name="afii10045">
          127 callsubr
          hstemhm
          79 75 300 82 47 89 callgsubr
          hintmask 01010001
          694 98 callgsubr
          hintmask 10101110
          -615 -66 rmoveto
          220 hlineto
          89 callsubr
          -75 hlineto
          75 -344 rmoveto
          143 hlineto
          13 callgsubr
          endchar
        </CharString>
        <CharString name="afii10046">
          26 140 callgsubr
          282 -20 hstem
          79 75 300 82 vstem
          79 hmoveto
          220 hlineto
          89 callsubr
          -75 hlineto
          75 -344 rmoveto
          143 hlineto
          13 callgsubr
          endchar
        </CharString>
        <CharString name="afii10047">
          114 callsubr
          hstem
          452 77 vstem
          27 144 rmoveto
          -95 55 76 -65 96 hhcurveto
          153 122 164 192 192 -122 165 -153 -89 -71 -55 -85 -55 hvcurveto
          59 -42 rlineto
          64 39 49 50 68 hhcurveto
          111 77 -120 -137 10 hvcurveto
          -265 -62 265 hlineto
          -138 -10 -76 -119 -112 hhcurveto
          -73 -51 56 70 -38 hvcurveto
          endchar
        </CharString>
        <CharString name="afii10048">
          360 -16 69 -32 -21 310 62 257 68 -15 -20 hstemhm
          79 75 110 78 428 79 hintmask 00000000
          hintmask 01100111
          79 hmoveto
          75 310 110 hlineto
          hintmask 10110111
          -179 14 133 -147 145 hhcurveto
          153 140 164 192 -54 callgsubr
          165 -153 -144 -134 -147 -178 -14 hvcurveto
          -110 hlineto
          hintmask 01101111
          310 -75 vlineto
          263 -342 rmoveto
          hintmask 10110111
          32 callgsubr
        </CharString>
        <CharString name="afii10049">
          31 0 62 219 63 275 63 hstem
          67 82 259 75 vstem
          408 619 rmoveto
          -275 -102 vlineto
          -86 -71 45 92 92 71 46 86 hvcurveto
          177 -619 rmoveto
          682 -177 vlineto
          -115 -124 -63 -138 -100 63 -59 79 -26 hvcurveto
          -36 -24 -29 -34 -16 -46 rrcurveto
          -72 -25 -15 -58 -62 hhcurveto
          -62 vlineto
          108 34 74 111 38 hvcurveto
          72 25 88 24 63 hhcurveto
          26 -281 hlineto
          endchar
        </CharString>
        <CharString name="afii10050">
          -66 21 -21 619 63 -63 144 hstemhm
          79 75 232 75 hintmask 00000000
          hintmask 11011000
          154 619 rmoveto
          hintmask 10111000
          307 144 -75 hlineto
          hintmask 11011000
          -81 -307 -682 75 vlineto
          endchar
        </CharString>
        <CharString name="afii10051">
          177 -95 62 54 -21 410 68 142 124 callsubr
          305 79 vstem
          19 620 rmoveto
          195 -620 74 179 hlineto
          125 35 106 57 callsubr
          30 -81 -125 -176 -47 -61 -120 vhcurveto
          -62 vlineto
          180 66 94 205 192 -76 82 -153 -66 -52 -20 -38 -37 hvcurveto
          200 157 callsubr
          vlineto
          endchar
        </CharString>
        <CharString name="afii10052">
          -65 0 21 598 63 43 175 hstem
          79 75 53 250 vstem
          207 759 -89 callgsubr
          -269 -281 rmoveto
          119 callgsubr
          75 hlineto
          endchar
        </CharString>
        <CharString name="afii10053">
          114 callsubr
          hstem
          44 77 vstem
          546 144 rmoveto
          -65 35 rlineto
          14 callgsubr
          -112 -76 119 138 -10 hvcurveto
          264 62 -264 hlineto
          137 10 77 120 111 hhcurveto
          -7 callgsubr
          85 -55 -71 55 -89 60 callsubr
        </CharString>
        <CharString name="afii10054">
          21 -30 callsubr
          hstem
          57 76 305 76 vstem
          278 307 -99 callsubr
        </CharString>
        <CharString name="afii10055">
          -34 callsubr
          hstem
          53 147 vstem
          164 98 callgsubr
          endchar
        </CharString>
        <CharString name="afii10056">
          -34 callsubr
          35 108 hstemhm
          -24 109 -32 147 -29 137 callgsubr
          hintmask 00110100
          171 771 rmoveto
          -30 24 -24 30 30 25 24 163 callgsubr
          -195 -16 callgsubr
          -24 30 30 25 24 163 callgsubr
          hintmask 11001000
          188 -155 -92 callgsubr
          endchar
        </CharString>
        <CharString name="afii10057">
          -41 -16 70 608 20 hstem
          341 75 vstem
          75 157 -19 callgsubr
        </CharString>
        <CharString name="afii10058">
          353 140 callgsubr
          220 62 hstem
          141 75 190 75 300 82 vstem
          216 148 rmoveto
          472 190 -620 220 vlineto
          89 callsubr
          -340 -534 hlineto
          67 callgsubr
          66 66 82 hvcurveto
          265 -86 rmoveto
          276 143 vlineto
          69 callsubr
          -46 -86 hvcurveto
          endchar
        </CharString>
        <CharString name="afii10059">
          368 140 callgsubr
          282 -20 hstem
          79 75 267 76 299 82 vstem
          79 hmoveto
          75 338 267 -338 220 hlineto
          110 callsubr
          -142 282 -76 -282 -267 282 -75 hlineto
          418 -344 rmoveto
          142 hlineto
          69 callsubr
          -46 -86 hvcurveto
          -142 hlineto
          endchar
        </CharString>
        <CharString name="afii10060">
          176 21 -21 410 68 142 124 callsubr
          305 74 vstem
          593 hmoveto
          74 179 hlineto
          192 -71 107 -153 -66 -52 -20 -38 -37 vhcurveto
          200 157 callsubr
          -62 195 -620 74 179 vlineto
          125 35 106 57 callsubr
          30 -106 -125 vhcurveto
          endchar
        </CharString>
        <CharString name="afii10061">
          21 0 21 283 74 230 74 45 175 hstemhm
          79 75 80 250 -44 91 69 callgsubr
          234 761 -89 callgsubr
          hintmask 11101010
          -371 -902 rmoveto
          75 304 hlineto
          -85 callsubr
          304 -75 vlineto
          endchar
        </CharString>
        <CharString name="afii10062">
          -84 139 callsubr
          57 45 hstem
          84 167 callgsubr
          vstem
          246 719 -89 callsubr
          226 -37 -65 callgsubr
        </CharString>
        <CharString name="afii10065">
          -40 callsubr
          hstemhm
          34 54 callgsubr
          hintmask 10001100
          34 234 rmoveto
          -98 callsubr
          59 59 29 48 44 vhcurveto
          hintmask 01011100
          -33 callgsubr
          hintmask 10101100
          -102 callgsubr
        </CharString>
        <CharString name="afii10066">
          -10 -16 -54 callsubr
          142 56 44 -20 hstemhm
          52 68 251 68 -21 -55 callsubr
          hintmask 11111100
          439 726 rmoveto
          -68 hlineto
          -28 -23 -16 -47 -204 -45 -195 -253 -138 104 -112 115 vhcurveto
          hintmask 11111010
          115 100 112 138 138 -102 112 -115 -50 -47 -21 -35 -38 hvcurveto
          117 21 48 81 98 hhcurveto
          96 42 44 56 hvcurveto
          -319 -492 rmoveto
          104 63 84 86 86 63 -84 -104 -104 -63 -84 -86 -86 -63 84 104 vhcurveto
          endchar
        </CharString>
        <CharString name="afii10067">
          -64 0 62 160 62 122 62 hstemhm
          63 68 188 76 -38 76 hintmask 00000000
          hintmask 11110100
          63 hmoveto
          156 hlineto
          126 88 43 103 58 -29 36 -47 21 hvcurveto
          hintmask 11111000
          27 21 11 29 34 vvcurveto
          85 -52 38 -146 vhcurveto
          -134 hlineto
          68 -406 rmoveto
          160 86 vlineto
          hintmask 11110100
          86 54 -13 -63 -63 -54 -21 -86 hvcurveto
          -86 344 rmoveto
          66 hlineto
          hintmask 11111000
          95 27 -10 -51 -51 -31 -10 -94 hvcurveto
          -63 hlineto
          endchar
        </CharString>
        <CharString name="afii10068">
          -165 149 callsubr
          63 68 vstem
          63 hmoveto
          68 406 123 callsubr
          hlineto
          endchar
        </CharString>
        <CharString name="afii10069">
          34 122 callgsubr
          344 62 hstemhm
          4 75 99 68 156 68 2 75 hintmask 00000000
          hintmask 01111110
          79 hmoveto
          323 hlineto
          68 hlineto
          2 hlineto
          hintmask 10111110
          -82 75 144 vlineto
          hintmask 01111110
          -77 406 -292 hlineto
          hintmask 10111110
          -204 -52 -113 -51 -89 vhcurveto
          -71 -144 75 hlineto
          hintmask 01111110
          77 144 rmoveto
          38 63 52 101 180 vvcurveto
          156 -344 hlineto
          endchar
        </CharString>
        <CharString name="afii10070">
          -38 callsubr
          hstem
          34 68 vstem
          102 234 -103 callgsubr
        </CharString>
        <CharString name="afii10071">
          -63 callgsubr
        </CharString>
        <CharString name="afii10072">
          195 112 callgsubr
          25 81 222 70 222 81 cntrmask 00011100
          47 394 -80 callsubr
          endchar
        </CharString>
        <CharString name="afii10073">
          -108 -10 62 170 62 132 62 hstemhm
          277 76 -38 76 166 callgsubr
          175 222 rmoveto
          76 64 -20 -68 -48 -50 -34 -56 -62 -49 31 35 -35 hvcurveto
          -44 -44 rlineto
          -38 38 44 -46 110 hhcurveto
          86 94 50 94 59 -37 43 -55 24 hvcurveto
          hintmask 11110000
          -23 callsubr
        </CharString>
        <CharString name="afii10074">
          -1 21 -21 468 -20 79 callsubr
          -41 callgsubr
        </CharString>
        <CharString name="afii10075">
          -1 57 callgsubr
          119 45 hstemhm
          63 68 -16 167 callgsubr
          -14 -55 callsubr
          hintmask 11101100
          277 567 -89 callsubr
          hintmask 11110010
          -188 -567 rmoveto
          -41 callgsubr
        </CharString>
        <CharString name="afii10076">
          -71 112 callgsubr
          63 68 223 81 vstem
          63 hmoveto
          68 181 hlineto
          94 callgsubr
          -106 -28 vvcurveto
          81 hlineto
          54 -52 117 -126 70 vhcurveto
          85 callgsubr
          214 -68 vlineto
          endchar
        </CharString>
        <CharString name="afii10077">
          -17 0 62 344 62 hstem
          146 68 169 68 vstem
          214 148 rmoveto
          258 169 -406 68 468 -305 -320 vlineto
          67 callgsubr
          59 66 82 hvcurveto
          endchar
        </CharString>
        <CharString name="afii10078">
          82 70 callsubr
          519 468 rmoveto
          17 callsubr
          68 hlineto
          endchar
        </CharString>
        <CharString name="afii10079">
          -1 21 -21 212 85 callsubr
          68 468 154 callgsubr
        </CharString>
        <CharString name="afii10080">
          -37 callsubr
          hstem
          34 68 328 68 vstem
          102 234 rmoveto
          -101 callgsubr
          -68 hmoveto
          -98 callsubr
          73 callsubr
          138 -117 112 -115 -100 callsubr
          vhcurveto
          endchar
        </CharString>
        <CharString name="afii10081">
          -1 21 -21 406 62 79 callsubr
          68 406 268 -406 68 468 -404 hlineto
          endchar
        </CharString>
        <CharString name="afii10082">
          30 -199 21 162 -54 callsubr
          -36 20 hstemhm
          63 54 callgsubr
          hintmask 11101100
          131 63 rmoveto
          -71 callgsubr
          hintmask 11011100
          62 -68 -667 68 vlineto
          433 vmoveto
          hintmask 11101100
          -47 callgsubr
        </CharString>
        <CharString name="afii10083">
          -54 -16 -54 callsubr
          hstem
          34 68 vstem
          454 74 -87 callsubr
        </CharString>
        <CharString name="afii10084">
          -97 149 callsubr
          183 68 vstem
          251 406 rmoveto
          66 callsubr
          68 hlineto
          endchar
        </CharString>
        <CharString name="afii10085">
          21 callsubr
          hstem
          228 88 -85 callgsubr
        </CharString>
        <CharString name="afii10086">
          285 -179 -21 184 -54 callsubr
          hstem
          34 68 272 68 272 68 cntrmask 00011100
          374 95 rmoveto
          -30 -30 -38 -19 -40 hhcurveto
          -86 -78 84 104 104 68 84 86 58 34 -26 -35 26 hvcurveto
          86 vmoveto
          22 -29 -32 15 -57 hhcurveto
          -115 -107 -112 -138 -98 callsubr
          37 36 11 20 33 hvcurveto
          -215 68 215 vlineto
          -20 33 36 -11 37 hhcurveto
          115 119 112 138 138 -107 112 -115 -57 -32 -15 -22 -29 hvcurveto
          120 -68 vlineto
          68 -206 rmoveto
          35 26 34 26 58 hhcurveto
          86 68 -84 -104 -104 -78 -84 -86 -40 -38 19 30 -30 hvcurveto
          endchar
        </CharString>
        <CharString name="afii10087">
          -116 0 76 callsubr
          hstem
          -10 callsubr
          81 hlineto
          -152 244 5 callgsubr
        </CharString>
        <CharString name="afii10088">
          21 0 62 406 -20 hstemhm
          63 68 268 68 -11 68 166 callgsubr
          524 141 callsubr
          406 -68 -468 hlineto
          hintmask 11101000
          393 -82 68 hlineto
          endchar
        </CharString>
        <CharString name="afii10089">
          -57 21 -21 115 callgsubr
          248 69 vstem
          27 347 19 callsubr
        </CharString>
        <CharString name="afii10090">
          159 0 62 406 -20 hstem
          63 68 180 68 180 68 cntrmask 00111000
          627 468 rmoveto
          103 callgsubr
          564 hlineto
          endchar
        </CharString>
        <CharString name="afii10091">
          181 0 62 406 -20 hstemhm
          63 68 180 68 180 68 -11 -55 callsubr
          hintmask 11110100
          684 62 rmoveto
          hintmask 11111000
          -57 406 103 callgsubr
          316 hlineto
          hintmask 11110100
          237 -82 68 hlineto
          endchar
        </CharString>
        <CharString name="afii10092">
          -8 135 callgsubr
          132 68 226 76 vstem
          200 248 rmoveto
          86 hlineto
          86 54 -30 -63 -63 -54 -30 -86 hvcurveto
          -86 hlineto
          -68 344 rmoveto
          -406 156 vlineto
          39 callsubr
          158 -191 -62 hlineto
          endchar
        </CharString>
        <CharString name="afii10093">
          97 0 21 -21 62 186 62 138 20 hstemhm
          63 68 226 76 64 -55 callsubr
          hintmask 10010010
          497 hmoveto
          97 callgsubr
          hintmask 01111100
          -434 -468 rmoveto
          -25 callsubr
        </CharString>
        <CharString name="afii10094">
          -77 0 62 186 62 158 -20 hstem
          63 68 226 76 vstem
          63 hmoveto
          -25 callsubr
        </CharString>
        <CharString name="afii10095">
          113 callgsubr
          hstem
          19 74 rmoveto
          -55 44 50 -35 92 hhcurveto
          115 119 112 138 138 -117 112 -115 -66 -66 -37 -57 -45 hvcurveto
          50 -39 rlineto
          44 31 46 27 50 hhcurveto
          75 68 -63 -85 17 hvcurveto
          -237 -62 240 hlineto
          -94 -10 -73 -72 -80 hhcurveto
          -75 -29 25 40 -31 hvcurveto
          endchar
        </CharString>
        <CharString name="afii10096">
          190 -16 62 -25 -21 212 62 148 62 -16 -20 hstemhm
          63 68 93 67 328 -55 callsubr
          hintmask 10110111
          291 234 rmoveto
          -101 callgsubr
          hintmask 01100111
          -228 -234 rmoveto
          68 212 93 hlineto
          hintmask 10110111
          -128 12 112 -100 109 hhcurveto
          73 callsubr
          138 -117 112 -115 -104 -105 -91 -119 -20 hvcurveto
          -95 hlineto
          hintmask 01101111
          194 -68 vlineto
          endchar
        </CharString>
        <CharString name="afii10097">
          -60 21 -21 158 62 186 62 hstem
          38 76 226 68 vstem
          340 220 rmoveto
          -86 hlineto
          -86 -54 30 63 63 54 30 86 hvcurveto
          86 hlineto
          68 62 rmoveto
          -156 hlineto
          -126 -88 -52 -103 -75 47 -47 74 -21 hvcurveto
          -119 -170 rlineto
          83 hlineto
          111 158 rlineto
          20 hlineto
          86 -158 68 hlineto
          endchar
        </CharString>
        <CharString name="afii10098">
          -165 138 callgsubr
          -62 144 hstemhm
          63 68 159 75 hintmask 00000000
          hintmask 11011000
          63 hmoveto
          68 406 hlineto
          hintmask 10111000
          234 144 -75 hlineto
          hintmask 11011000
          -82 -227 vlineto
          endchar
        </CharString>
        <CharString name="afii10099">
          4 -170 63 128 107 callgsubr
          477 -21 rmoveto
          317 vlineto
          120 -92 68 -115 -54 -48 -21 -38 -37 vhcurveto
          194 168 63 -168 44 -68 -44 -46 -63 46 -619 132 callsubr
          -317 56 callgsubr
          -80 -63 80 hlineto
          82 66 67 82 hvcurveto
          endchar
        </CharString>
        <CharString name="afii10100">
          -165 0 21 385 62 102 175 hstem
          63 68 25 250 vstem
          156 604 -89 callgsubr
          -309 -745 rmoveto
          68 406 123 callsubr
          hlineto
          endchar
        </CharString>
        <CharString name="afii10101">
          113 callgsubr
          hstem
          454 74 rmoveto
          -53 37 rlineto
          -40 -31 -29 -25 -75 hhcurveto
          -80 -73 72 94 -10 hvcurveto
          236 62 -233 hlineto
          85 17 68 63 75 hhcurveto
          -7 callsubr
          57 -45 -66 37 -66 60 callgsubr
        </CharString>
        <CharString name="afii10102">
          149 callgsubr
          hstem
          44 69 252 68 vstem
          240 201 -96 callgsubr
        </CharString>
        <CharString name="afii10103">
          22 callgsubr
          91 -44 callsubr
          hintmask 11101000
          20 -613 -14 callgsubr
        </CharString>
        <CharString name="afii10104">
          22 callgsubr
          91 108 hstem
          -55 109 9 68 9 109 cntrmask 00011100
          140 -103 callsubr
          118 -613 -14 callgsubr
        </CharString>
        <CharString name="afii10105">
          -337 -200 62 586 20 91 -44 callsubr
          -88 -751 rmoveto
          -62 28 vlineto
          hintmask 11101000
          -15 callsubr
        </CharString>
        <CharString name="afii10106">
          242 135 callgsubr
          146 68 168 69 225 76 vstem
          214 148 rmoveto
          258 168 -406 156 vlineto
          9 callsubr
          -85 158 -305 -320 hlineto
          67 callgsubr
          59 66 82 hvcurveto
          237 100 rmoveto
          85 hlineto
          86 54 -30 -63 -63 -54 -30 -86 hvcurveto
          -85 hlineto
          endchar
        </CharString>
        <CharString name="afii10107">
          258 0 62 150 62 -26 62 158 -20 hstemhm
          63 68 267 69 225 76 hintmask 00000000
          hintmask 11011110
          63 hmoveto
          68 212 267 -212 156 hlineto
          126 88 52 103 hvcurveto
          hintmask 10111110
          103 -90 52 -126 vhcurveto
          -85 158 -69 hlineto
          hintmask 11011110
          -194 -267 194 -68 vlineto
          hintmask 10111110
          404 -220 rmoveto
          85 hlineto
          86 54 -30 -63 -63 -54 -30 -86 hvcurveto
          -85 hlineto
          endchar
        </CharString>
        <CharString name="afii10108">
          4 21 107 callgsubr
          409 hmoveto
          68 296 hlineto
          120 -92 68 -115 -54 -48 -21 -38 -37 vhcurveto
          194 168 63 -168 44 -68 -44 -46 -63 46 -619 132 callsubr
          endchar
        </CharString>
        <CharString name="afii10109">
          -71 0 21 160 141 callgsubr
          100 175 hstemhm
          63 68 43 250 -70 81 69 callgsubr
          174 602 -89 callgsubr
          hintmask 11101010
          -327 -743 rmoveto
          68 181 hlineto
          94 callgsubr
          -106 -28 vvcurveto
          81 hlineto
          54 -52 117 -126 70 vhcurveto
          85 callgsubr
          214 -68 vlineto
          endchar
        </CharString>
        <CharString name="afii10110">
          -75 -179 -21 668 -20 119 45 hstem
          86 167 callgsubr
          vstem
          248 567 -89 callsubr
          6 -479 -85 callgsubr
        </CharString>
        <CharString name="afii10145">
          97 122 callgsubr
          620 -20 hstemhm
          79 75 126 75 119 75 hintmask 00000000
          hintmask 01111100
          355 hmoveto
          194 682 -75 -620 -320 620 -75 -682 201 hlineto
          hintmask 10111100
          -82 75 vlineto
          endchar
        </CharString>
        <CharString name="afii10193">
          -1 122 callgsubr
          406 -20 hstemhm
          63 68 101 68 99 -55 callsubr
          hintmask 01111100
          467 468 rmoveto
          -68 -406 -268 406 -68 -468 169 hlineto
          hintmask 10111100
          -82 68 vlineto
          hintmask 01111100
          82 167 vlineto
          endchar
        </CharString>
        <CharString name="afii10846">
          -4 -16 63 126 61 189 61 hstem
          426 67 vstem
          426 234 rmoveto
          -397 hlineto
          -138 118 -112 -39 callgsubr
          116 112 138 138 -118 112 -115 -120 -52 -43 -67 -44 vhcurveto
          55 -36 rlineto
          51 30 29 34 104 hhcurveto
          86 78 -85 -104 hvcurveto
          -9 -61 rmoveto
          -74 -23 -64 -52 -68 hhcurveto
          -68 -64 52 74 -23 hvcurveto
          endchar
        </CharString>
        <CharString name="afii57929">
          -317 91 callsubr
        </CharString>
        <CharString name="afii61352">
          392 0 21 264 51 51 47 215 47 -34 20 hstemhm
          79 75 322 74 43 50 187 51 -62 callgsubr
          hintmask 0111000110000000
          737 2 callgsubr
          hintmask 1000111000000000
          -514 -285 rmoveto
          -86 callsubr
        </CharString>
        <CharString name="agrave">
          51 callsubr
          139 callgsubr
          2 250 76 -55 callsubr
          hintmask 00001010
          334 567 -81 callsubr
          hintmask 10000101
          -70 -450 rmoveto
          -98 callsubr
          59 59 29 48 44 vhcurveto
          hintmask 01010101
          -33 callgsubr
          hintmask 10100101
          -102 callgsubr
        </CharString>
        <CharString name="alpha">
          66 -16 -54 callsubr
          -16 -20 hstemhm
          35 68 371 71 hintmask 00000000
          hintmask 10111000
          474 468 44 callsubr
          hintmask 11011000
          73 -43 -77 34 -76 hhcurveto
          -115 -102 -112 -138 -152 84 -98 139 68 59 38 61 38 hvcurveto
          -82 13 28 -17 55 hhcurveto
          41 13 12 18 21 hvcurveto
          -40 48 rlineto
          -11 -13 -6 -4 -11 hhcurveto
          -34 -7 37 150 hvcurveto
          18 vlineto
          hintmask 10111000
          -99 callgsubr
          hintmask 11011000
          -36 callsubr
        </CharString>
        <CharString name="alphatonos">
          66 -16 -54 callsubr
          -36 20 86 205 hstemhm
          35 68 143 150 78 71 69 callgsubr
          246 570 -100 callgsubr
          hintmask 10101010
          139 -291 44 callsubr
          hintmask 11001010
          73 -43 -77 34 -76 hhcurveto
          -115 -102 -112 -138 -152 84 -98 139 68 59 38 61 38 hvcurveto
          -82 13 28 -17 55 hhcurveto
          41 13 12 18 21 hvcurveto
          -40 48 rlineto
          -11 -13 -6 -4 -11 hhcurveto
          -34 -7 37 150 hvcurveto
          18 vlineto
          hintmask 10101010
          -99 callgsubr
          hintmask 11001010
          -36 callsubr
        </CharString>
        <CharString name="amacron">
          -40 callsubr
          118 45 hstemhm
          34 68 32 267 29 -55 callsubr
          hintmask 00001010
          134 46 callgsubr
          hintmask 10000101
          -367 -397 rmoveto
          -98 callsubr
          59 59 29 48 44 vhcurveto
          hintmask 01010101
          -33 callgsubr
          hintmask 10100101
          -102 callgsubr
        </CharString>
        <CharString name="ampersand">
          5 -12 69 -36 -21 625 68 hstemhm
          30 76 -12 76 113 76 68 75 hintmask 00000000
          hintmask 00101110
          210 446 rmoveto
          -28 45 -12 39 40 vvcurveto
          29 41 26 21 21 30 -20 -29 -43 -32 -43 -41 -44 vhcurveto
          226 -323 rmoveto
          35 59 21 67 10 54 -75 16 rcurveline
          -9 -40 -13 -45 -19 -40 -136 194 rcurveline
          57 58 52 63 69 vvcurveto
          78 -63 37 -64 -65 -73 -43 -78 -57 10 -48 28 -40 vhcurveto
          25 -36 rlineto
          hintmask 10110110
          -64 -64 -63 -66 -70 vvcurveto
          -112 88 -91 108 68 54 29 43 41 vhcurveto
          hintmask 01101110
          42 -60 rlineto
          91 hlineto
          -325 335 rmoveto
          147 -210 rlineto
          hintmask 10110110
          -41 -32 -39 -27 -47 hhcurveto
          -66 -54 61 75 45 42 47 49 50 hvcurveto
          endchar
        </CharString>
        <CharString name="anoteleia">
          -311 199 72 callsubr
          254 rmoveto
          92 callgsubr
        </CharString>
        <CharString name="aogonek">
          30 -186 36 134 -54 callsubr
          -16 -20 hstemhm
          34 68 264 66 -2 -55 callsubr
          hintmask 11011100
          432 -82 rmoveto
          hintmask 11011010
          83 callgsubr
          468 -68 -62 vlineto
          hintmask 11101010
          48 -44 -60 30 -60 hhcurveto
          -71 callsubr
          59 59 29 48 44 hvcurveto
          -56 vlineto
          hintmask 11011100
          38 callgsubr
          -330 316 rmoveto
          hintmask 11101010
          -47 callgsubr
        </CharString>
        <CharString name="aring">
          -40 callsubr
          92 49 100 50 hstemhm
          34 68 74 50 99 50 55 68 -62 callgsubr
          hintmask 0000110110000000
          226 659 -75 callgsubr
          hintmask 1000001001000000
          -142 -425 rmoveto
          -98 callsubr
          59 59 29 48 44 vhcurveto
          hintmask 0101001001000000
          -33 callgsubr
          hintmask 1010001001000000
          -102 callgsubr
        </CharString>
        <CharString name="asciicircum">
          -53 190 286 hstem
          229 476 rmoveto
          -184 -245 55 -41 128 171 127 -171 57 41 rlineto
          endchar
        </CharString>
        <CharString name="asciitilde">
          -26 255 66 -3 67 hstemhm
          52 45 319 46 hintmask 00000000
          hintmask 10110000
          334 321 rmoveto
          hintmask 01110000
          -38 -55 64 -61 hhcurveto
          hintmask 10110000
          -59 -62 -72 -58 -7 hvcurveto
          45 hlineto
          hintmask 01110000
          26 5 39 37 39 hhcurveto
          hintmask 10110000
          38 55 -63 61 hhcurveto
          hintmask 01110000
          59 62 72 58 7 hvcurveto
          -46 hlineto
          -26 -5 -38 -38 -39 hhcurveto
          endchar
        </CharString>
        <CharString name="asterisk">
          -183 544 47 98 -20 hstem
          46 256 vstem
          216 591 rmoveto
          43 75 -41 23 -43 -75 -44 75 -41 -23 43 -75 rlineto
          -87 -47 88 hlineto
          -44 -76 41 -24 44 75 43 -75 41 24 -44 76 rlineto
          87 47 hlineto
          endchar
        </CharString>
        <CharString name="at">
          220 -146 62 139 61 -60 68 310 62 -17 -20 174 62 hstemhm
          40 68 106 61 195 62 116 69 -62 callgsubr
          hintmask 1100011111000000
          375 55 rmoveto
          45 38 19 35 27 hvcurveto
          hintmask 1010111111000000
          -34 17 33 -19 48 hhcurveto
          103 31 117 98 256 -112 168 -232 -155 -178 -172 -214 -278 151 -177 218 52 52 10 20 55 hvcurveto
          -27 58 rlineto
          -17 -46 -40 -9 -46 hhcurveto
          -185 -116 154 242 177 147 144 118 192 83 -135 -211 -94 -23 -69 -42 -16 -35 15 48 hvcurveto
          292 -62 -21 vlineto
          hintmask 1101011111000000
          24 -26 -33 14 -38 hhcurveto
          -104 -55 -82 -136 -137 55 -86 106 hvcurveto
          95 220 rmoveto
          -88 -36 -71 -61 -62 -36 74 85 82 37 77 61 62 35 -77 -82 vhcurveto
          endchar
        </CharString>
        <CharString name="atilde">
          51 callsubr
          109 callsubr
          34 68 3 125 callgsubr
          -18 68 -62 callgsubr
          hintmask 0000100110000000
          335 634 rmoveto
          hintmask 0000010110000000
          -38 -18 63 -61 hhcurveto
          hintmask 0000100110000000
          -46 callsubr
          hintmask 0000010110000000
          -17 callsubr
          hintmask 0000100110000000
          38 18 -64 61 hhcurveto
          hintmask 0000010110000000
          -78 callgsubr
          hintmask 1000001001000000
          -301 -400 rmoveto
          -98 callsubr
          59 59 29 48 44 vhcurveto
          hintmask 0101001001000000
          -33 callgsubr
          hintmask 1010001001000000
          -102 callgsubr
        </CharString>
        <CharString name="b">
          29 callgsubr
          242 111 callsubr
          hintmask 10111100
          131 63 rmoveto
          -71 callgsubr
          320 -68 vlineto
          hintmask 01111100
          -726 48 callsubr
        </CharString>
        <CharString name="backslash">
          -154 56 callsubr
          33 310 vstem
          33 682 rmoveto
          248 -682 rlineto
          62 hlineto
          -248 682 rlineto
          endchar
        </CharString>
        <CharString name="bar">
          -358 66 41 vstem
          66 -68 rmoveto
          41 818 -41 hlineto
          endchar
        </CharString>
        <CharString name="beta">
          10 -180 -21 186 62 359 62 214 62 hstem
          63 68 227 69 9 69 vstem
          131 69 rmoveto
          -42 34 54 -42 83 hhcurveto
          148 55 101 116 107 -74 89 -99 43 hvcurveto
          57 34 38 54 57 vvcurveto
          88 -42 70 -126 -134 -62 -62 -244 vhcurveto
          -639 68 vlineto
          71 669 rmoveto
          -62 vlineto
          130 104 -106 -97 -91 -48 -65 -86 -97 -52 96 59 -22 hvcurveto
          254 vlineto
          190 50 36 78 68 31 -28 -62 -61 -52 -63 -104 vhcurveto
          endchar
        </CharString>
        <CharString name="braceleft">
          153 callsubr
          75 72 -55 72 -65 66 cntrmask 11100000
          166 callgsubr
          164 202 rmoveto
          39 -17 42 -41 25 vhcurveto
          hintmask 11100100
          41 25 18 41 40 62 -17 54 40 vvcurveto
          51 40 25 25 5 vhcurveto
          -1 46 rlineto
          hintmask 11110000
          -57 -8 -80 -33 -87 vvcurveto
          hintmask 11100100
          -62 24 -55 -39 vvcurveto
          -39 -46 -38 -26 -5 vhcurveto
          -46 vlineto
          hintmask 11101000
          26 -5 39 -38 -39 vvcurveto
          hintmask 11110000
          -39 -17 -55 -62 vvcurveto
          -87 81 -33 57 -8 vhcurveto
          46 vlineto
          -25 5 -41 25 51 40 17 54 62 vvcurveto
          endchar
        </CharString>
        <CharString name="braceright">
          153 callsubr
          83 66 -65 72 -56 73 cntrmask 11100000
          166 callgsubr
          84 414 rmoveto
          -39 17 -42 41 -25 vhcurveto
          hintmask 11110000
          -41 -25 -18 -41 -40 vvcurveto
          hintmask 11100100
          -62 17 -54 -40 vvcurveto
          -51 -40 -25 -25 -5 vhcurveto
          1 -46 rlineto
          57 8 80 33 87 vvcurveto
          hintmask 11110000
          62 -24 55 39 vvcurveto
          39 46 38 26 5 vhcurveto
          46 vlineto
          hintmask 11101000
          -26 5 -39 38 39 vvcurveto
          hintmask 11100100
          39 17 55 62 vvcurveto
          87 -81 33 -57 8 vhcurveto
          -46 vlineto
          25 -5 41 -25 -51 -40 -17 -54 -62 vvcurveto
          endchar
        </CharString>
        <CharString name="bracketleft">
          -272 -39 39 682 39 hstem
          67 75 vstem
          67 721 rmoveto
          -760 172 39 -97 682 97 39 vlineto
          endchar
        </CharString>
        <CharString name="bracketright">
          -272 -39 39 682 39 hstem
          118 74 vstem
          192 -39 rmoveto
          760 -172 -39 98 -682 -98 -39 vlineto
          endchar
        </CharString>
        <CharString name="brokenbar">
          -352 69 41 vstem
          69 389 rmoveto
          41 361 -41 hlineto
          -818 vmoveto
          41 361 -41 hlineto
          endchar
        </CharString>
        <CharString name="bullet">
          -201 113 246 hstem
          42 246 vstem
          42 236 rmoveto
          -68 55 -55 68 68 55 55 68 68 -55 55 -68 -68 -55 -55 -68 vhcurveto
          endchar
        </CharString>
        <CharString name="c">
          -54 -16 -54 callsubr
          hstem
          34 68 vstem
          454 74 -87 callsubr
        </CharString>
        <CharString name="cacute">
          -54 -16 -54 callsubr
          83 175 hstem
          34 68 87 250 vstem
          189 601 -89 callgsubr
          49 -668 -87 callsubr
        </CharString>
        <CharString name="caron">
          -120 567 158 hstem
          58 271 vstem
          310 725 -94 callsubr
          endchar
        </CharString>
        <CharString name="ccaron">
          -54 152 callsubr
          30 271 vstem
          384 725 -94 callsubr
          51 -617 -87 callsubr
        </CharString>
        <CharString name="ccedilla">
          -50 callgsubr
        </CharString>
        <CharString name="ccircumflex">
          -54 152 callsubr
          30 271 vstem
          151 567 -101 callsubr
          322 -527 -87 callsubr
        </CharString>
        <CharString name="cdotaccent">
          -54 52 callgsubr
          112 108 vstem
          214 613 rmoveto
          -30 23 -24 30 30 25 24 30 30 -25 24 -30 -30 -23 -84 callgsubr
          240 -539 -87 callsubr
        </CharString>
        <CharString name="cedilla">
          -186 62 callsubr
          48 20 hstem
          198 65 vstem
          138 hmoveto
          -48 -103 -72 callgsubr
          33 68 rlineto
          endchar
        </CharString>
        <CharString name="cent">
          -42 21 -21 83 -54 callsubr
          99 -20 hstem
          33 68 134 41 vstem
          235 682 rmoveto
          -101 vlineto
          -104 -17 -98 -105 -126 vvcurveto
          -125 98 -104 104 -18 vhcurveto
          -86 41 83 vlineto
          86 2 48 35 43 53 -53 37 rcurveline
          -29 -38 -28 -25 -67 -2 rrcurveto
          376 vlineto
          46 -4 41 -27 29 -41 50 39 rcurveline
          -42 54 -62 37 -62 4 rrcurveto
          99 vlineto
          -41 -534 rmoveto
          -73 17 -61 76 92 vvcurveto
          92 61 76 73 17 vhcurveto
          endchar
        </CharString>
        <CharString name="chi">
          -112 -179 -21 668 -20 hstem
          172 138 rmoveto
          -157 -338 rlineto
          75 hlineto
          120 257 120 -257 rlineto
          75 hlineto
          -157 338 154 330 rlineto
          -76 hlineto
          -116 -250 -116 250 rlineto
          -76 hlineto
          endchar
        </CharString>
        <CharString name="circumflex">
          -121 567 158 hstem
          59 271 vstem
          78 567 -101 callsubr
          endchar
        </CharString>
        <CharString name="colon">
          -311 -8 109 262 72 callsubr
          20 callsubr
          371 vmoveto
          92 callgsubr
        </CharString>
        <CharString name="comma">
          -326 -121 222 hstem
          48 108 vstem
          48 47 rmoveto
          -102 callsubr
          endchar
        </CharString>
        <CharString name="copyright">
          -21 47 86 50 241 51 92 47 hstem
          45 46 105 55 360 47 vstem
          487 178 rmoveto
          -43 30 rlineto
          -27 -20 -16 -19 -53 hhcurveto
          -53 -51 53 68 64 48 56 56 30 29 -17 -29 21 hvcurveto
          3 -3 42 32 rlineto
          39 -29 -46 29 -50 hhcurveto
          -78 -81 -74 -97 -93 78 -78 82 62 39 26 40 30 hvcurveto
          -442 108 -22 callsubr
          endchar
        </CharString>
        <CharString name="currency">
          -20 114 61 240 61 hstem
          76 61 240 60 vstem
          137 295 rmoveto
          66 54 54 66 66 54 -54 -66 -66 -54 -54 -66 -66 -54 54 66 vhcurveto
          226 -147 rmoveto
          58 -57 38 38 -57 58 rlineto
          22 30 13 38 40 vvcurveto
          40 -13 38 -22 30 vhcurveto
          57 58 -38 38 -58 -57 rlineto
          22 -30 -36 12 -40 hhcurveto
          -41 -37 -13 -23 -30 hvcurveto
          -60 59 -38 -38 59 -60 rlineto
          -22 -30 -12 -36 -40 vvcurveto
          -40 12 -36 22 -30 vhcurveto
          -59 -60 38 -38 59 59 rlineto
          -23 30 38 -13 41 hhcurveto
          40 36 12 22 30 hvcurveto
          endchar
        </CharString>
        <CharString name="d">
          29 callgsubr
          242 -20 hstemhm
          34 54 callgsubr
          hintmask 10111100
          34 234 rmoveto
          -98 callsubr
          59 59 29 48 44 vhcurveto
          hintmask 01111100
          -62 callsubr
          hintmask 10111100
          -104 -78 -84 -86 -86 -78 84 104 vhcurveto
          endchar
        </CharString>
        <CharString name="dcaron">
          -25 callgsubr
          28 222 -28 20 hstemhm
          34 68 328 68 42 108 hintmask 00000000
          hintmask 00010001
          540 680 rmoveto
          -102 callsubr
          hintmask 10101110
          -506 -446 rmoveto
          -98 callsubr
          59 59 29 48 44 vhcurveto
          hintmask 01101110
          -62 callsubr
          hintmask 10101110
          -104 -78 -84 -86 -86 -78 84 104 vhcurveto
          endchar
        </CharString>
        <CharString name="dcroat">
          29 callgsubr
          83 63 96 -20 hstemhm
          34 54 callgsubr
          hintmask 10111110
          102 234 rmoveto
          -101 callgsubr
          -68 hmoveto
          -98 callsubr
          59 59 29 48 44 vhcurveto
          hintmask 01111110
          -61 68 567 53 63 -53 96 -68 -96 -141 -63 141 -161 vlineto
          48 -44 -60 30 -60 hhcurveto
          -100 callsubr
          hvcurveto
          endchar
        </CharString>
        <CharString name="degree">
          -190 156 callsubr
          36 54 160 55 vstem
          36 562 rmoveto
          -74 60 -59 74 74 61 59 74 74 -61 61 -74 -74 -60 -61 -74 vhcurveto
          54 hmoveto
          45 35 37 45 45 35 -37 -45 -45 -35 -35 -45 -45 -35 35 45 vhcurveto
          endchar
        </CharString>
        <CharString name="delta">
          3 -16 62 618 62 hstem
          35 68 18 79 231 68 vstem
          103 234 rmoveto
          -101 callgsubr
          168 492 rmoveto
          -113 -37 -49 -53 -27 14 -27 28 -24 hvcurveto
          75 -64 rlineto
          -105 -17 -98 -105 -126 vvcurveto
          -98 callsubr
          73 callsubr
          76 -26 63 -61 51 vhcurveto
          -187 158 rlineto
          -16 13 -9 17 14 vvcurveto
          21 21 17 54 vhcurveto
          131 62 hlineto
          endchar
        </CharString>
        <CharString name="dieresis">
          -89 559 108 hstem
          58 20 callgsubr
          253 -103 callsubr
          endchar
        </CharString>
        <CharString name="dieresistonos">
          -130 559 108 hstem
          53 20 callgsubr
          175 686 -100 callgsubr
          -16 -262 rmoveto
          -30 24 -24 30 30 25 24 163 callgsubr
          -195 -16 callgsubr
          -24 30 30 25 24 163 callgsubr
          endchar
        </CharString>
        <CharString name="divide">
          -84 21 109 83 55 66 108 hstem
          166 109 vstem
          166 76 rmoveto
          83 callsubr
          25 25 163 callgsubr
          313 vmoveto
          83 callsubr
          25 25 30 30 -25 23 -30 -30 -24 -23 -30 vhcurveto
          -113 -121 rmoveto
          -55 340 55 vlineto
          endchar
        </CharString>
        <CharString name="dollar">
          -57 21 -21 83 63 373 63 100 -20 hstem
          49 69 96 41 115 68 vstem
          214 682 rmoveto
          -100 vlineto
          -98 -9 -67 -53 -84 vvcurveto
          -92 95 -24 70 -14 vhcurveto
          -160 vlineto
          -58 4 -43 31 -17 43 -61 -31 rcurveline
          29 -68 68 -39 82 -3 rrcurveto
          -83 41 84 vlineto
          102 8 81 53 85 vvcurveto
          97 -103 26 -80 14 vhcurveto
          153 vlineto
          59 -3 30 -31 18 -44 61 31 rcurveline
          -29 69 -57 38 -82 3 rrcurveto
          99 vlineto
          -41 -308 rmoveto
          -49 8 -47 13 41 vvcurveto
          43 32 32 64 8 vhcurveto
          41 -221 rmoveto
          51 -9 64 -9 -50 vvcurveto
          -42 -46 -34 -69 -7 vhcurveto
          endchar
        </CharString>
        <CharString name="dotaccent">
          -283 559 108 hstem
          58 108 vstem
          58 613 rmoveto
          -30 23 -24 30 30 25 24 30 30 -25 24 -30 -30 -23 -84 callgsubr
          endchar
        </CharString>
        <CharString name="dotbelowcomb">
          -315 71 callgsubr
          hstem
          -365 108 vstem
          -365 -129 rmoveto
          -30 23 -24 30 30 25 24 30 30 -25 24 -30 -30 -23 -84 callgsubr
          endchar
        </CharString>
        <CharString name="dotlessi">
          -337 70 callsubr
          63 68 vstem
          63 hmoveto
          97 callgsubr
          endchar
        </CharString>
        <CharString name="e">
          -38 callsubr
          hstem
          34 68 vstem
          102 234 -103 callgsubr
        </CharString>
        <CharString name="eacute">
          -38 callsubr
          83 175 hstem
          34 68 85 250 vstem
          187 601 -89 callgsubr
          -301 -508 -103 callgsubr
        </CharString>
        <CharString name="ebreve">
          -38 callsubr
          76 61 57 20 hstem
          34 68 28 271 vstem
          360 698 -93 callsubr
          -299 -464 -103 callgsubr
        </CharString>
        <CharString name="ecaron">
          -38 callsubr
          83 158 hstem
          34 68 28 271 vstem
          382 725 -94 callsubr
          -299 -457 -103 callgsubr
        </CharString>
        <CharString name="ecircumflex">
          -38 callsubr
          83 158 hstem
          34 68 28 271 vstem
          149 567 -101 callsubr
          -28 -367 -103 callgsubr
        </CharString>
        <CharString name="edieresis">
          -63 callgsubr
        </CharString>
        <CharString name="edotaccent">
          -38 callsubr
          75 108 hstem
          34 68 110 108 vstem
          212 613 rmoveto
          -30 23 -24 30 30 25 24 30 30 -25 24 -30 -30 -23 -84 callgsubr
          -110 -379 -103 callgsubr
        </CharString>
        <CharString name="egrave">
          -38 callsubr
          83 139 callgsubr
          -8 250 69 callgsubr
          324 567 -81 callsubr
          hintmask 11101000
          8 -450 -103 callgsubr
        </CharString>
        <CharString name="eight">
          23 -16 67 288 67 224 67 hstemhm
          45 72 -43 73 259 74 -44 73 hintmask 00000000
          hintmask 11110010
          117 195 rmoveto
          104 74 40 86 86 73 -40 -104 -104 -73 -40 -86 -86 -74 40 104 vhcurveto
          hintmask 11101000
          -43 324 rmoveto
          -67 33 -48 45 -29 vhcurveto
          hintmask 11110010
          -62 -34 -45 -60 -86 vvcurveto
          -138 118 -73 -39 callgsubr
          116 73 138 86 -45 60 -62 34 vhcurveto
          hintmask 11101100
          45 29 33 48 67 vvcurveto
          122 -107 56 -96 -96 -107 -56 -122 vhcurveto
          203 -113 rmoveto
          -72 -58 34 79 81 58 30 72 72 57 -30 -81 -81 -57 -32 -72 hvcurveto
          endchar
        </CharString>
        <CharString name="ellipsis">
          64 -8 109 hstem
          48 108 87 108 88 108 vstem
          48 20 callsubr
          195 hmoveto
          -77 callsubr
          196 hmoveto
          92 callgsubr
        </CharString>
        <CharString name="emacron">
          -38 callsubr
          102 45 hstem
          34 68 22 267 vstem
          124 46 callgsubr
          -289 -397 -103 callgsubr
        </CharString>
        <CharString name="emdash">
          192 213 55 hstem
          56 268 rmoveto
          -55 611 55 vlineto
          endchar
        </CharString>
        <CharString name="endash">
          -3 213 55 hstem
          56 268 rmoveto
          -55 416 55 vlineto
          endchar
        </CharString>
        <CharString name="eng">
          4 -170 63 128 106 callsubr
          477 -21 rmoveto
          317 vlineto
          120 -92 68 -115 -54 -48 -21 -38 -37 vhcurveto
          hintmask 11011100
          43 -82 callsubr
          hintmask 11101100
          104 53 84 86 86 53 -58 -68 vhcurveto
          -317 56 callgsubr
          -80 -63 80 hlineto
          82 66 67 82 hvcurveto
          endchar
        </CharString>
        <CharString name="eogonek">
          -3 -186 36 384 105 callsubr
          hstem
          35 68 115 66 vstem
          284 -82 rmoveto
          35 5 19 27 15 vhcurveto
          87 10 43 41 38 57 -54 36 rcurveline
          -51 -30 -29 -34 144 callgsubr
          -117 112 -115 -100 callsubr
          -131 107 -107 109 -11 31 callsubr
          -171 378 rmoveto
          73 23 63 53 68 hhcurveto
          68 63 -53 -73 23 hvcurveto
          endchar
        </CharString>
        <CharString name="epsilon">
          -107 -10 62 170 62 132 62 123 callgsubr
          166 callgsubr
          249 222 -90 callgsubr
          hintmask 11110000
          -90 callsubr
        </CharString>
        <CharString name="epsilontonos">
          -107 -10 62 170 62 132 62 76 205 123 callgsubr
          60 150 hintmask 00000000
          hintmask 00010010
          207 570 -100 callgsubr
          hintmask 11100100
          -47 -537 -90 callgsubr
          hintmask 11101000
          -90 callsubr
        </CharString>
        <CharString name="equal">
          -132 158 55 55 54 hstem
          65 269 vstem
          65 322 rmoveto
          -54 269 54 vlineto
          -269 -109 rmoveto
          -55 269 55 vlineto
          endchar
        </CharString>
        <CharString name="eta">
          4 -200 -43 callgsubr
          hstemhm
          63 68 278 -55 callsubr
          hintmask 11101100
          409 -200 -91 callgsubr
          hintmask 11011100
          43 -82 callsubr
          hintmask 11101100
          104 53 84 86 86 53 -58 -68 vhcurveto
          endchar
        </CharString>
        <CharString name="etatonos">
          4 -200 -43 callgsubr
          86 205 hstemhm
          63 68 127 150 1 -55 callsubr
          hintmask 00001010
          258 570 -100 callgsubr
          hintmask 11100101
          62 -959 -91 callgsubr
          hintmask 11010101
          43 -82 callsubr
          hintmask 11100101
          104 53 84 86 86 53 -58 -68 vhcurveto
          endchar
        </CharString>
        <CharString name="eth">
          13 -16 62 375 63 251 -20 hstem
          34 67 329 68 vstem
          34 234 rmoveto
          -98 callsubr
          73 callsubr
          203 -75 112 -105 94 vhcurveto
          50 65 -45 34 -48 -63 -72 56 -42 -55 27 -19 25 -18 22 -18 rlinecurve
          -56 -72 46 -34 52 70 62 -55 42 -51 21 -51 rlinecurve
          32 -40 -48 20 -48 hhcurveto
          -100 callsubr
          hvcurveto
          67 hmoveto
          104 80 83 85 85 79 -83 -104 -104 -79 -84 -85 -85 -80 84 104 vhcurveto
          endchar
        </CharString>
        <CharString name="exclam">
          -298 -8 109 581 -20 hstemhm
          63 108 -89 -55 callsubr
          hintmask 11100000
          63 20 callsubr
          hintmask 11010000
          19 119 rmoveto
          68 516 -68 hlineto
          endchar
        </CharString>
        <CharString name="exclamdown">
          -300 476 108 hstemhm
          60 108 -86 -55 callsubr
          hintmask 11000000
          168 529 rmoveto
          30 -23 25 -30 -30 -25 -25 -30 -30 25 -23 30 30 23 23 30 vhcurveto
          hintmask 10100000
          -18 -119 rmoveto
          -68 -515 68 hlineto
          endchar
        </CharString>
        <CharString name="f">
          -255 138 callgsubr
          212 62 hstem
          88 68 vstem
          264 680 rmoveto
          62 -28 vlineto
          -82 -66 -66 -82 hvcurveto
          -126 -60 -62 60 74 callsubr
          108 62 -108 126 vlineto
          46 34 40 46 vhcurveto
          endchar
        </CharString>
        <CharString name="five">
          -10 -16 62 347 62 158 69 hstem
          76 74 269 67 vstem
          36 74 rmoveto
          -55 44 75 -35 92 hhcurveto
          149 90 98 138 156 -82 79 -150 -35 -37 -5 -7 -32 hvcurveto
          170 272 69 -346 -327 vlineto
          23 50 23 15 105 hhcurveto
          113 52 -76 -97 -91 -70 -83 -100 -75 -54 25 40 -31 hvcurveto
          endchar
        </CharString>
        <CharString name="florin">
          -255 -200 68 538 62 212 62 hstem
          88 68 vstem
          156 -52 rmoveto
          458 108 62 -108 126 111 callgsubr
          -126 -60 -62 60 -458 vlineto
          68 callgsubr
          72 66 82 hvcurveto
          endchar
        </CharString>
        <CharString name="four">
          -31 21 -21 176 74 432 -20 hstem
          320 75 vstem
          320 566 rmoveto
          -316 -222 vlineto
          222 432 rmoveto
          -302 -432 rlineto
          -74 302 -176 75 176 67 74 -67 432 vlineto
          endchar
        </CharString>
        <CharString name="g">
          30 -200 62 122 43 callgsubr
          34 234 rmoveto
          -98 callsubr
          59 59 29 48 44 vhcurveto
          -43 vlineto
          -104 -52 -52 -86 vhcurveto
          -154 -62 154 hlineto
          118 88 66 152 hvcurveto
          450 -68 -62 vlineto
          hintmask 11101100
          -102 callgsubr
        </CharString>
        <CharString name="gamma">
          -36 callgsubr
        </CharString>
        <CharString name="gbreve">
          30 -200 62 122 -54 callsubr
          -36 20 92 161 callgsubr
          34 68 28 271 29 68 -62 callgsubr
          hintmask 0000110100000000
          360 698 -93 callsubr
          hintmask 1101001010000000
          -367 -464 rmoveto
          -98 callsubr
          59 59 29 48 44 vhcurveto
          -43 vlineto
          -104 -52 -52 -86 vhcurveto
          -154 -62 154 hlineto
          118 88 66 152 hvcurveto
          450 -68 -62 vlineto
          hintmask 1110001010000000
          -102 callgsubr
        </CharString>
        <CharString name="gcaron">
          30 -200 62 122 62 376 145 callsubr
          19 -55 callsubr
          hintmask 00001010
          392 725 -94 callsubr
          hintmask 11010101
          -377 -457 rmoveto
          -98 callsubr
          59 59 29 48 44 vhcurveto
          -43 vlineto
          -104 -52 -52 -86 vhcurveto
          -154 -62 154 hlineto
          118 88 66 152 hvcurveto
          450 -68 -62 vlineto
          hintmask 11100101
          -102 callgsubr
        </CharString>
        <CharString name="gcircumflex">
          30 -200 62 122 55 callgsubr
          158 hstemhm
          34 68 28 271 29 -55 callsubr
          hintmask 00001010
          149 567 -101 callsubr
          hintmask 11010101
          -96 -367 rmoveto
          -98 callsubr
          59 59 29 48 44 vhcurveto
          -43 vlineto
          -104 -52 -52 -86 vhcurveto
          -154 -62 154 hlineto
          118 88 66 152 hvcurveto
          450 -68 -62 vlineto
          hintmask 11100101
          -102 callgsubr
        </CharString>
        <CharString name="gcommaaccent">
          30 -200 62 122 -54 callsubr
          -36 20 92 108 hstemhm
          34 68 109 108 111 -55 callsubr
          hintmask 00001010
          319 613 rmoveto
          30 -24 25 -30 vhcurveto
          -24 callsubr
          24 -23 30 30 24 23 30 vhcurveto
          hintmask 11010101
          -285 32 callsubr
          -43 vlineto
          -104 -52 -52 -86 vhcurveto
          -154 -62 154 hlineto
          118 88 66 152 hvcurveto
          450 -68 -62 vlineto
          hintmask 11100101
          -102 callgsubr
        </CharString>
        <CharString name="gdotaccent">
          30 -200 62 122 -54 callsubr
          -36 20 91 108 hstemhm
          34 68 110 108 110 -55 callsubr
          hintmask 00001010
          212 613 rmoveto
          -30 23 -24 30 30 25 24 30 30 -25 24 -30 -30 -23 -84 callgsubr
          hintmask 11010101
          -178 32 callsubr
          -43 vlineto
          -104 -52 -52 -86 vhcurveto
          -154 -62 154 hlineto
          118 88 66 152 hvcurveto
          450 -68 -62 vlineto
          hintmask 11100101
          -102 callgsubr
        </CharString>
        <CharString name="germandbls">
          -13 -16 63 -26 -21 679 62 hstemhm
          63 68 72 69 86 69 0 -55 callsubr
          hintmask 01111100
          272 403 rmoveto
          56 155 9 108 vvcurveto
          101 -45 64 -144 -110 -65 -65 -143 vhcurveto
          -533 68 551 vlineto
          90 45 38 62 68 52 -23 -62 vhcurveto
          -104 -155 29 -116 vvcurveto
          -76 58 -15 90 -25 vhcurveto
          hintmask 10111010
          51 -15 25 -61 -54 vvcurveto
          -48 -24 -62 -71 -64 -16 32 46 -19 vhcurveto
          -61 -30 rlineto
          -71 30 43 -40 87 hhcurveto
          115 48 80 93 99 -58 82 -80 17 hvcurveto
          -48 10 -37 11 27 vvcurveto
          endchar
        </CharString>
        <CharString name="grave">
          -143 138 callsubr
          59 250 vstem
          289 567 -81 callsubr
          endchar
        </CharString>
        <CharString name="gravecomb">
          -531 138 callsubr
          -483 250 vstem
          -253 567 -81 callsubr
          endchar
        </CharString>
        <CharString name="greater">
          -50 5 -21 hstem
          455 285 rmoveto
          -359 301 -44 -53 296 -248 -296 -248 44 -53 rlineto
          endchar
        </CharString>
        <CharString name="guillemotleft">
          36 22 284 -69 284 hintmask 00000000
          hintmask 10000000
          22 238 24 callgsubr
          hintmask 01000000
          -28 -184 24 callgsubr
          endchar
        </CharString>
        <CharString name="guillemotright">
          37 47 284 -69 284 hintmask 00000000
          hintmask 10000000
          331 238 25 callsubr
          hintmask 01000000
          458 183 25 callsubr
          endchar
        </CharString>
        <CharString name="guilsinglleft">
          -179 22 284 vstem
          22 238 24 callgsubr
          endchar
        </CharString>
        <CharString name="guilsinglright">
          -178 47 284 vstem
          331 238 25 callsubr
          endchar
        </CharString>
        <CharString name="h">
          4 21 159 callgsubr
          242 134 callsubr
          477 296 rmoveto
          120 -92 68 -115 -54 -48 -21 -38 -37 vhcurveto
          301 -68 -726 68 234 vlineto
          -79 callsubr
        </CharString>
        <CharString name="hbar">
          4 21 159 callgsubr
          83 63 96 134 callsubr
          477 296 rmoveto
          120 -92 68 -115 -54 -48 -21 -38 -37 vhcurveto
          142 149 63 -149 96 -68 -96 -44 -63 44 -567 68 234 vlineto
          -79 callsubr
        </CharString>
        <CharString name="hcircumflex">
          4 0 -20 callgsubr
          222 20 38 158 hstemhm
          -24 271 -184 68 278 -55 callsubr
          hintmask 00011000
          -5 764 -101 callsubr
          hintmask 11100110
          501 -502 rmoveto
          120 -92 68 -115 -54 -48 -21 -38 -37 vhcurveto
          301 -68 -726 68 234 vlineto
          -79 callsubr
        </CharString>
        <CharString name="hyphen">
          79 callgsubr
        </CharString>
        <CharString name="i">
          -337 57 callgsubr
          111 -44 callsubr
          hintmask 11101000
          20 -613 -14 callgsubr
        </CharString>
        <CharString name="iacute">
          100 callgsubr
          175 hstemhm
          18 250 -205 68 136 callsubr
          18 601 -89 callgsubr
          hintmask 11001000
          -171 -742 -14 callgsubr
        </CharString>
        <CharString name="ibreve">
          22 callgsubr
          92 161 callgsubr
          -39 271 -169 -55 callsubr
          hintmask 00111000
          191 698 -93 callsubr
          hintmask 11000100
          -169 -698 -14 callgsubr
        </CharString>
        <CharString name="icircumflex">
          100 callgsubr
          158 hstemhm
          -39 271 -169 68 136 callsubr
          -20 567 -101 callsubr
          hintmask 11001000
          102 -601 -14 callgsubr
        </CharString>
        <CharString name="idieresis">
          22 callgsubr
          91 108 hstem
          -55 109 9 68 9 109 cntrmask 00011100
          140 -103 callsubr
          118 -613 -14 callgsubr
        </CharString>
        <CharString name="igrave">
          100 callgsubr
          175 hstemhm
          -75 250 -112 68 136 callsubr
          155 567 -81 callsubr
          hintmask 11001000
          138 -684 -14 callgsubr
        </CharString>
        <CharString name="imacron">
          22 callgsubr
          118 45 hstemhm
          -45 267 -159 68 136 callsubr
          -45 46 callgsubr
          hintmask 11001000
          -159 -631 -14 callgsubr
        </CharString>
        <CharString name="iogonek">
          -337 -186 36 618 -20 111 108 hstemhm
          -1 66 -22 108 -88 -55 callsubr
          hintmask 11110000
          65 -82 rmoveto
          hintmask 11100100
          83 callgsubr
          468 -68 -463 vlineto
          hintmask 11110000
          38 callgsubr
          hintmask 11101000
          -22 695 88 callgsubr
        </CharString>
        <CharString name="iota">
          -12 callsubr
          hstem
          59 68 vstem
          78 callgsubr
          endchar
        </CharString>
        <CharString name="iotadieresis">
          87 callsubr
          135 -103 callsubr
          277 -613 rmoveto
          -88 callsubr
          endchar
        </CharString>
        <CharString name="iotadieresistonos">
          87 callsubr
          62 686 -100 callgsubr
          -16 -262 rmoveto
          -30 24 -24 30 30 25 24 163 callgsubr
          -195 -16 callgsubr
          -24 30 30 25 24 163 callgsubr
          277 -613 rmoveto
          -88 callsubr
          endchar
        </CharString>
        <CharString name="iotatonos">
          -12 callsubr
          86 205 hstemhm
          59 68 -48 150 88 callsubr
          79 570 -100 callgsubr
          hintmask 11010000
          49 -759 rmoveto
          -88 callsubr
          endchar
        </CharString>
        <CharString name="itilde">
          100 callgsubr
          109 callsubr
          -74 45 92 68 92 46 hintmask 00000000
          hintmask 00101010
          156 634 rmoveto
          hintmask 00011010
          -38 -18 63 -61 hhcurveto
          hintmask 00101010
          -46 callsubr
          hintmask 00011010
          -17 callsubr
          hintmask 00101010
          38 18 -64 61 hhcurveto
          hintmask 00011010
          -78 callgsubr
          hintmask 11000100
          -93 -634 -14 callgsubr
        </CharString>
        <CharString name="j">
          -337 -200 62 606 -20 111 -44 callsubr
          -88 -751 rmoveto
          -62 28 vlineto
          hintmask 11101000
          -15 callsubr
        </CharString>
        <CharString name="jcircumflex">
          -337 -200 62 586 20 99 158 hstemhm
          -37 271 -171 68 136 callsubr
          -18 567 -101 callsubr
          hintmask 11001000
          -8 -739 rmoveto
          -62 28 vlineto
          -15 callsubr
        </CharString>
        <CharString name="k">
          -95 57 callgsubr
          278 -20 hstem
          63 68 vstem
          63 hmoveto
          -19 callsubr
        </CharString>
        <CharString name="kappa">
          -95 70 callsubr
          63 68 vstem
          63 hmoveto
          -4 callsubr
          186 -68 vlineto
          endchar
        </CharString>
        <CharString name="kcommaaccent">
          -95 42 callgsubr
          427 20 238 20 hstem
          63 68 52 108 vstem
          183 -92 rmoveto
          -102 callsubr
          -120 92 rmoveto
          -19 callsubr
        </CharString>
        <CharString name="kgreenlandic">
          -71 0 21 160 141 callgsubr
          hstem
          63 68 223 81 vstem
          63 hmoveto
          68 181 hlineto
          94 callgsubr
          -106 -28 vvcurveto
          81 hlineto
          54 -52 117 -126 70 vhcurveto
          85 callgsubr
          214 -68 vlineto
          endchar
        </CharString>
        <CharString name="l">
          -327 21 -21 726 -20 hstem
          68 68 vstem
          68 hmoveto
          68 726 -68 hlineto
          endchar
        </CharString>
        <CharString name="lacute">
          -327 0 21 685 20 38 175 hstemhm
          24 250 -206 68 136 callsubr
          24 798 -89 callgsubr
          hintmask 11001000
          -172 -939 68 callsubr
        </CharString>
        <CharString name="lambda">
          -73 56 callsubr
          229 380 rmoveto
          153 -380 rlineto
          74 hlineto
          -277 682 rlineto
          -72 hlineto
          85 -213 -190 -469 rlineto
          74 hlineto
          endchar
        </CharString>
        <CharString name="lcaron">
          -327 0 21 491 222 -28 20 hstemhm
          68 68 40 108 hintmask 00000000
          hintmask 01001000
          176 680 rmoveto
          -102 callsubr
          hintmask 10110000
          -108 -680 68 callsubr
        </CharString>
        <CharString name="lcommaaccent">
          -327 42 callgsubr
          685 20 hstemhm
          47 108 -87 -55 callsubr
          hintmask 10010000
          47 -92 rmoveto
          -102 callsubr
          hintmask 01101000
          21 92 68 callsubr
        </CharString>
        <CharString name="ldot">
          -279 0 21 272 109 304 20 hstem
          68 68 38 108 vstem
          174 348 rmoveto
          -77 callsubr
          -106 -348 68 callsubr
        </CharString>
        <CharString name="less">
          -50 5 -21 hstem
          26 285 rmoveto
          359 -301 44 53 -296 248 296 248 -44 53 rlineto
          endchar
        </CharString>
        <CharString name="logicalnot">
          -146 213 55 hstem
          265 55 vstem
          320 268 rmoveto
          -255 -55 200 -95 55 hlineto
          endchar
        </CharString>
        <CharString name="lslash">
          -305 21 -21 726 -20 hstem
          80 68 vstem
          148 396 rmoveto
          100 71 -23 32 -77 -54 rlineto
          281 -68 -329 vlineto
          -93 -65 23 -32 70 49 rlineto
          -349 68 vlineto
          endchar
        </CharString>
        <CharString name="m">
          239 21 117 callsubr
          63 68 223 67 223 67 hintmask 00000000
          hintmask 11011100
          711 296 64 callgsubr
          hintmask 10111100
          35 -82 callsubr
          hintmask 11011100
          39 callgsubr
          234 vlineto
          39 callgsubr
          vlineto
          endchar
        </CharString>
        <CharString name="macron">
          -125 586 45 hstem
          59 267 vstem
          59 46 callgsubr
          endchar
        </CharString>
        <CharString name="mu">
          48 -200 21 162 63 -46 76 callsubr
          hstemhm
          63 67 317 69 hintmask 00000000
          hintmask 10111100
          447 4 callsubr
        </CharString>
        <CharString name="multiply">
          -101 77 326 hstem
          52 326 vstem
          176 240 rmoveto
          -124 -124 39 -39 124 124 124 -124 39 39 -124 124 124 124 -39 39 -124 -124 -124 124 -39 -39 rlineto
          endchar
        </CharString>
        <CharString name="n">
          4 21 61 callgsubr
          hintmask 11011000
          477 296 rmoveto
          120 -92 68 -115 -54 -48 -20 -38 -37 vhcurveto
          hintmask 10111000
          42 -82 callsubr
          hintmask 11011000
          -79 callsubr
        </CharString>
        <CharString name="nacute">
          4 26 callsubr
          65 250 -37 68 69 callgsubr
          196 601 -89 callgsubr
          hintmask 11001010
          65 -446 -56 callsubr
        </CharString>
        <CharString name="ncaron">
          4 133 callgsubr
          8 271 -1 68 69 callgsubr
          391 725 -94 callsubr
          hintmask 11001010
          67 -395 -56 callsubr
        </CharString>
        <CharString name="ncommaaccent">
          4 42 callgsubr
          401 62 -36 20 hstemhm
          63 68 84 108 86 -55 callsubr
          hintmask 10000100
          215 -92 rmoveto
          -102 callsubr
          hintmask 01101010
          262 388 -56 callgsubr
        </CharString>
        <CharString name="nine">
          3 -16 65 168 62 357 61 hstem
          26 67 329 68 vstem
          26 457 rmoveto
          -138 117 -102 115 48 50 18 31 40 vhcurveto
          -52 -161 -119 -44 -83 -12 rrcurveto
          -65 vlineto
          148 8 200 123 342 vvcurveto
          138 -116 102 -115 -115 -118 -102 -138 vhcurveto
          67 hmoveto
          104 79 75 86 86 78 -75 -104 -104 -78 -74 -86 -86 -79 74 104 vhcurveto
          endchar
        </CharString>
        <CharString name="ntilde">
          4 0 -20 callgsubr
          -36 20 99 109 callsubr
          63 68 -27 125 callgsubr
          -38 68 -62 callgsubr
          hintmask 0001001100000000
          334 -4 callgsubr
          hintmask 1100010010000000
          143 -338 rmoveto
          120 -92 68 -115 -54 -48 -20 -38 -37 vhcurveto
          hintmask 1010010010000000
          42 -82 callsubr
          hintmask 1100010010000000
          -79 callsubr
        </CharString>
        <CharString name="nu">
          -75 0 76 callsubr
          hstem
          190 hmoveto
          75 91 callgsubr
          endchar
        </CharString>
        <CharString name="numbersign">
          9 21 -21 166 68 176 69 hstem
          151 479 rmoveto
          -92 -69 87 hlineto
          -11 -176 rlineto
          -96 -68 92 hlineto
          -11 -166 rlineto
          67 hlineto
          11 166 rlineto
          124 hlineto
          -11 -166 rlineto
          68 hlineto
          11 166 rlineto
          91 68 -87 hlineto
          11 176 rlineto
          96 69 -91 hlineto
          10 164 rlineto
          -68 hlineto
          -10 -164 rlineto
          -124 hlineto
          10 164 rlineto
          -67 hlineto
          52 -233 rmoveto
          124 hlineto
          -11 -176 rlineto
          -124 hlineto
          endchar
        </CharString>
        <CharString name="o">
          -37 callsubr
          hstem
          34 68 328 68 vstem
          102 234 rmoveto
          -101 callgsubr
          -68 hmoveto
          -98 callsubr
          73 callsubr
          138 -117 112 -115 -100 callsubr
          vhcurveto
          endchar
        </CharString>
        <CharString name="oacute">
          -37 callsubr
          83 139 callgsubr
          85 250 -7 68 88 callsubr
          187 601 -89 callgsubr
          hintmask 11010100
          -301 -508 rmoveto
          -101 callgsubr
          -68 hmoveto
          -98 callsubr
          73 callsubr
          138 -117 112 -115 -100 callsubr
          vhcurveto
          endchar
        </CharString>
        <CharString name="obreve">
          -37 callsubr
          76 61 57 20 hstem
          34 68 28 271 29 68 vstem
          360 698 -93 callsubr
          -299 -464 rmoveto
          -101 callgsubr
          -68 hmoveto
          -98 callsubr
          73 callsubr
          138 -117 112 -115 -100 callsubr
          vhcurveto
          endchar
        </CharString>
        <CharString name="ocircumflex">
          1 152 callsubr
          28 271 29 68 vstem
          149 567 -101 callsubr
          -28 -367 rmoveto
          -101 callgsubr
          -68 hmoveto
          -98 callsubr
          73 callsubr
          138 -117 112 -115 -100 callsubr
          vhcurveto
          endchar
        </CharString>
        <CharString name="odieresis">
          1 52 callgsubr
          12 -57 callsubr
          12 68 vstem
          309 -103 callsubr
          -12 -379 rmoveto
          -101 callgsubr
          -68 hmoveto
          -98 callsubr
          73 callsubr
          138 -117 112 -115 -100 callsubr
          vhcurveto
          endchar
        </CharString>
        <CharString name="oe">
          391 -31 callgsubr
          hstem
          34 68 328 68 vstem
          102 234 rmoveto
          -101 callgsubr
          -68 hmoveto
          -98 callsubr
          77 78 50 75 42 vhcurveto
          -75 44 78 -50 77 hhcurveto
          120 51 44 67 44 hvcurveto
          -54 36 rlineto
          -51 -30 -29 -34 144 callgsubr
          -117 112 -115 -77 -78 -50 -75 -43 vhcurveto
          75 -43 -78 50 -77 hhcurveto
          -100 callsubr
          hvcurveto
          474 62 rmoveto
          73 23 63 53 68 hhcurveto
          68 63 -53 -73 23 hvcurveto
          endchar
        </CharString>
        <CharString name="ogonek">
          -161 -186 36 150 24 hstem
          58 66 vstem
          124 -82 rmoveto
          83 callgsubr
          24 vlineto
          -84 -12 -48 -39 -64 -84 callsubr
          endchar
        </CharString>
        <CharString name="ograve">
          -37 callsubr
          83 139 callgsubr
          -8 250 86 68 88 callsubr
          324 567 -81 callsubr
          hintmask 11010100
          8 -450 rmoveto
          -101 callgsubr
          -68 hmoveto
          -98 callsubr
          73 callsubr
          138 -117 112 -115 -100 callsubr
          vhcurveto
          endchar
        </CharString>
        <CharString name="ohungarumlaut">
          -37 callsubr
          76 219 hstem
          34 68 328 68 vstem
          319 587 -64 callsubr
          -217 -545 rmoveto
          -101 callgsubr
          -68 hmoveto
          -98 callsubr
          73 callsubr
          138 -117 112 -115 -100 callsubr
          vhcurveto
          endchar
        </CharString>
        <CharString name="omacron">
          -37 callsubr
          102 45 hstem
          34 68 22 267 39 68 vstem
          124 46 callgsubr
          -289 -397 rmoveto
          -101 callgsubr
          -68 hmoveto
          -98 callsubr
          73 callsubr
          138 -117 112 -115 -100 callsubr
          vhcurveto
          endchar
        </CharString>
        <CharString name="omega">
          -14 62 420 -20 hstem
          40 67 214 61 214 67 cntrmask 00111000
          382 361 -106 callsubr
        </CharString>
        <CharString name="omegatonos">
          -14 151 callsubr
          86 205 hstemhm
          40 67 214 61 -39 150 103 67 hintmask 00000000
          hintmask 00100100
          343 570 -100 callgsubr
          hintmask 11011010
          -50 -399 -106 callsubr
        </CharString>
        <CharString name="omicron">
          -37 callsubr
          hstem
          34 68 328 68 vstem
          102 234 rmoveto
          -101 callgsubr
          -68 hmoveto
          -98 callsubr
          73 callsubr
          138 -117 112 -115 -100 callsubr
          vhcurveto
          endchar
        </CharString>
        <CharString name="omicrontonos">
          -37 callsubr
          70 205 hstem
          34 68 155 150 23 68 vstem
          257 570 -100 callgsubr
          -244 -525 rmoveto
          -101 callgsubr
          -68 hmoveto
          -98 callsubr
          73 callsubr
          138 -117 112 -115 -100 callsubr
          vhcurveto
          endchar
        </CharString>
        <CharString name="one">
          -223 56 callsubr
          155 74 vstem
          229 hmoveto
          682 -74 vlineto
          -150 -254 42 -16 108 102 rlineto
          -514 vlineto
          endchar
        </CharString>
        <CharString name="onehalf">
          202 0 55 322 55 250 -20 hstem
          122 57 447 58 vstem
          422 354 rmoveto
          44 -38 58 callsubr
          55 -196 vlineto
          12 36 37 42 153 callgsubr
          44 -80 -58 -34 -26 -52 -39 vhcurveto
          50 328 66 callgsubr
          -99 33 callgsubr
          endchar
        </CharString>
        <CharString name="onequarter">
          160 21 -21 105 58 519 -20 hstem
          122 57 373 59 vstem
          472 682 66 callgsubr
          -99 33 callgsubr
          373 -358 38 callsubr
        </CharString>
        <CharString name="ordfeminine">
          -118 285 51 51 47 215 47 -9 -20 hstemhm
          60 50 187 51 hintmask 00000000
          hintmask 11001100
          348 285 rmoveto
          51 -288 -51 vlineto
          hintmask 11101100
          142 364 rmoveto
          52 43 -51 -55 -55 -41 -54 -52 -52 -42 52 55 55 40 53 52 hvcurveto
          -142 -107 rmoveto
          -78 66 -77 76 36 31 13 26 28 vhcurveto
          -30 51 vlineto
          hintmask 11011100
          291 -51 -30 vlineto
          hintmask 11101100
          26 -28 -32 13 -35 hhcurveto
          -75 -67 -76 -78 hvcurveto
          endchar
        </CharString>
        <CharString name="ordmasculine">
          -123 285 51 51 47 215 47 hstem
          60 50 187 51 vstem
          204 2 callgsubr
          endchar
        </CharString>
        <CharString name="oslash">
          2 -16 62 -25 117 callsubr
          35 54 callgsubr
          hintmask 01001100
          35 234 110 callgsubr
          hintmask 10011100
          45 callsubr
          hintmask 01101100
          38 -42 -52 22 -52 hhcurveto
          -100 callsubr
          hvcurveto
          335 144 rmoveto
          -235 -253 rlineto
          -20 31 -12 37 41 vvcurveto
          104 78 84 86 38 36 -17 -27 29 vhcurveto
          29 -36 rmoveto
          20 -30 12 -38 -40 vvcurveto
          hintmask 10001100
          -104 -78 -84 -86 -38 -37 17 27 -28 vhcurveto
          endchar
        </CharString>
        <CharString name="oslashacute">
          2 -16 62 -46 67 callsubr
          35 68 85 250 -7 -55 callsubr
          hintmask 00001010
          188 601 -89 callgsubr
          hintmask 01000101
          -369 -508 110 callgsubr
          hintmask 10010101
          45 callsubr
          hintmask 01100101
          38 -42 -52 22 -52 hhcurveto
          -100 callsubr
          hvcurveto
          335 144 rmoveto
          -235 -253 rlineto
          -20 31 -12 37 41 vvcurveto
          104 78 84 86 38 36 -17 -27 29 vhcurveto
          29 -36 rmoveto
          20 -30 12 -38 -40 vvcurveto
          hintmask 10000101
          -104 -78 -84 -86 -38 -37 17 27 -28 vhcurveto
          endchar
        </CharString>
        <CharString name="otilde">
          -37 callsubr
          83 109 callsubr
          34 68 -7 125 callgsubr
          -8 -55 callsubr
          hintmask 00100110
          325 634 -68 callsubr
          -223 -400 rmoveto
          -101 callgsubr
          -68 hmoveto
          -98 callsubr
          73 callsubr
          138 -117 112 -115 -100 callsubr
          vhcurveto
          endchar
        </CharString>
        <CharString name="p">
          30 -178 -21 183 -54 callsubr
          -16 111 callsubr
          hintmask 11101100
          131 63 rmoveto
          -71 callgsubr
          hintmask 11011100
          62 -68 -667 68 vlineto
          433 vmoveto
          hintmask 11101100
          -47 callgsubr
        </CharString>
        <CharString name="paragraph">
          -6 21 -21 282 64 273 63 hstem
          32 82 131 75 46 75 vstem
          320 hmoveto
          619 46 -619 75 682 -169 vlineto
          -115 -125 -63 -138 -128 106 -63 107 -8 hvcurveto
          -282 vlineto
          346 vmoveto
          -74 9 -57 44 82 vvcurveto
          82 57 45 74 9 vhcurveto
          endchar
        </CharString>
        <CharString name="parenleft">
          -296 5 -21 713 -20 hstem
          43 76 vstem
          194 629 rmoveto
          68 vlineto
          -94 -57 70 callgsubr
          57 -164 94 hvcurveto
          69 vlineto
          -31 18 -44 119 150 vvcurveto
          150 44 121 31 18 vhcurveto
          endchar
        </CharString>
        <CharString name="parenright">
          -296 5 -21 713 -20 hstem
          116 76 vstem
          41 53 rmoveto
          -69 vlineto
          94 57 166 192 192 -57 163 -94 hvcurveto
          -68 vlineto
          31 -18 44 -119 -150 vvcurveto
          -150 -44 -121 -31 -18 vhcurveto
          endchar
        </CharString>
        <CharString name="percent">
          0 6 43 94 43 148 43 94 43 hstem
          39 43 94 43 93 43 94 43 vstem
          82 424 17 callgsubr
          316 -328 17 callgsubr
          -263 -56 rmoveto
          37 -32 396 471 -37 33 rlineto
          endchar
        </CharString>
        <CharString name="period">
          -327 -8 109 hstem
          48 108 vstem
          48 20 callsubr
          endchar
        </CharString>
        <CharString name="periodcentered">
          -311 199 72 callsubr
          254 rmoveto
          92 callgsubr
        </CharString>
        <CharString name="phi">
          103 -178 -21 184 62 437 -20 hstem
          38 68 180 68 176 68 vstem
          318 484 rmoveto
          -16 -16 -11 -19 hvcurveto
          -407 vlineto
          -96 8 -84 48 131 vvcurveto
          103 48 41 63 37 vhcurveto
          -36 52 rlineto
          -84 -50 -59 -59 -124 vvcurveto
          -161 115 -77 133 -11 vhcurveto
          -184 68 184 vlineto
          135 11 109 76 162 vvcurveto
          175 -131 75 -149 vhcurveto
          36 -64 rmoveto
          96 -9 80 -48 -129 vvcurveto
          -129 -80 -48 -96 -9 vhcurveto
          endchar
        </CharString>
        <CharString name="pi">
          47 149 callsubr
          93 68 256 68 vstem
          25 468 rmoveto
          -62 68 74 callsubr
          256 74 callsubr
          68 62 vlineto
          endchar
        </CharString>
        <CharString name="plus">
          -88 213 55 hstem
          194 55 vstem
          194 213 rmoveto
          -156 55 156 156 55 -156 156 -55 -156 -156 -55 vlineto
          endchar
        </CharString>
        <CharString name="plusminus">
          -40 22 55 201 55 135 -20 hstem
          218 55 vstem
          62 22 rmoveto
          367 55 -367 hlineto
          156 201 rmoveto
          -134 55 134 156 55 -156 135 -55 -135 -156 -55 vlineto
          endchar
        </CharString>
        <CharString name="psi">
          77 -178 -21 184 63 420 -20 hstem
          57 67 146 68 146 67 cntrmask 00011100
          338 -15 rmoveto
          131 12 82 85 140 vvcurveto
          246 -67 -246 vlineto
          -107 -48 -57 -98 -10 vhcurveto
          420 -68 -420 vlineto
          -98 10 -48 57 107 vvcurveto
          246 -67 -246 vlineto
          -140 82 -85 131 -12 vhcurveto
          -184 68 vlineto
          endchar
        </CharString>
        <CharString name="q">
          30 -179 -21 184 43 callgsubr
          34 234 rmoveto
          -98 callsubr
          59 59 29 48 44 vhcurveto
          -261 68 668 -68 -62 vlineto
          hintmask 11101100
          -102 callgsubr
        </CharString>
        <CharString name="question">
          -70 -8 109 534 62 hstemhm
          29 63 63 109 -88 68 110 -55 callsubr
          hintmask 11110100
          155 47 rmoveto
          83 callsubr
          25 25 163 callgsubr
          -126 512 rmoveto
          51 callgsubr
          -59 -72 hvcurveto
          hintmask 11101100
          -172 -178 29 -195 vvcurveto
          68 hlineto
          172 178 -29 195 vvcurveto
          109 -88 84 -115 -80 -80 -53 -85 -30 vhcurveto
          endchar
        </CharString>
        <CharString name="questiondown">
          -70 -105 62 534 109 hstemhm
          39 69 90 108 -89 69 84 62 hintmask 00000000
          hintmask 11110100
          306 545 rmoveto
          30 -24 25 -30 -30 -24 -25 -30 -30 24 -24 30 30 24 24 30 vhcurveto
          126 -512 rmoveto
          -62 20 rlineto
          -62 -20 -47 -34 -60 hhcurveto
          -86 -49 59 72 hvcurveto
          hintmask 11101100
          172 178 -29 195 vvcurveto
          -69 hlineto
          -172 -178 29 -195 vvcurveto
          -109 89 -84 115 80 79 53 85 30 vhcurveto
          endchar
        </CharString>
        <CharString name="quotedbl">
          -201 424 258 hstem
          59 68 76 68 vstem
          203 424 rmoveto
          68 258 -68 hlineto
          -144 -258 rmoveto
          68 258 -68 hlineto
          endchar
        </CharString>
        <CharString name="quotedblbase">
          -131 -121 222 hstem
          48 108 87 108 vstem
          243 47 rmoveto
          -102 callsubr
          -195 hmoveto
          -102 callsubr
          endchar
        </CharString>
        <CharString name="quotedblleft">
          -147 560 108 hstem
          42 108 87 108 vstem
          150 613 rmoveto
          30 -23 25 -30 vhcurveto
          -1 hlineto
          -24 callsubr
          25 -23 30 30 23 23 30 vhcurveto
          195 hmoveto
          30 -23 25 -30 vhcurveto
          -1 hlineto
          -24 callsubr
          25 -23 30 30 23 23 30 vhcurveto
          endchar
        </CharString>
        <CharString name="quotedblright">
          -168 557 222 hstem
          39 108 87 108 vstem
          39 725 rmoveto
          -102 callsubr
          195 hmoveto
          -102 callsubr
          endchar
        </CharString>
        <CharString name="quoteleft">
          -342 560 108 hstem
          42 108 vstem
          150 613 rmoveto
          30 -23 25 -30 vhcurveto
          -1 hlineto
          -24 callsubr
          25 -23 30 30 23 23 30 vhcurveto
          endchar
        </CharString>
        <CharString name="quoteright">
          -363 557 222 hstem
          39 108 vstem
          39 725 rmoveto
          -102 callsubr
          endchar
        </CharString>
        <CharString name="quotesinglbase">
          -326 -121 222 hstem
          48 108 vstem
          48 47 rmoveto
          -102 callsubr
          endchar
        </CharString>
        <CharString name="quotesingle">
          -345 91 callsubr
        </CharString>
        <CharString name="r">
          -96 21 117 callsubr
          63 -55 callsubr
          hintmask 11010000
          375 344 rmoveto
          -18 callgsubr
          hintmask 10110000
          37 -82 callsubr
          hintmask 11010000
          8 callgsubr
          endchar
        </CharString>
        <CharString name="racute">
          -96 26 callsubr
          36 250 69 callgsubr
          167 601 -89 callgsubr
          hintmask 11001000
          -8 -398 rmoveto
          -18 callgsubr
          hintmask 10101000
          37 -82 callsubr
          hintmask 11001000
          8 callgsubr
          endchar
        </CharString>
        <CharString name="rcaron">
          -96 133 callgsubr
          -21 271 69 callgsubr
          362 725 -94 callsubr
          hintmask 11001000
          -6 -347 rmoveto
          -18 callgsubr
          hintmask 10101000
          37 -82 callsubr
          hintmask 11001000
          8 callgsubr
          endchar
        </CharString>
        <CharString name="rcommaaccent">
          -97 42 callgsubr
          401 62 -36 20 hstemhm
          41 108 -86 -55 callsubr
          hintmask 10001000
          41 -92 rmoveto
          -102 callsubr
          hintmask 01100100
          334 436 rmoveto
          -18 callgsubr
          hintmask 01010100
          37 -82 callsubr
          hintmask 01100100
          8 callgsubr
          endchar
        </CharString>
        <CharString name="registered">
          -21 47 224 51 98 50 97 47 hstem
          45 46 145 55 125 54 141 47 vstem
          236 117 rmoveto
          55 133 70 hlineto
          80 -133 rlineto
          64 hlineto
          -87 146 rlineto
          30 16 22 31 40 vvcurveto
          62 -53 37 -52 vhcurveto
          -129 hlineto
          -191 -163 -22 callsubr
          200 113 rmoveto
          55 hlineto
          51 19 -24 -25 -21 -13 -28 -57 hvcurveto
          -55 hlineto
          endchar
        </CharString>
        <CharString name="rho">
          22 -178 -21 183 -54 callsubr
          hstem
          55 68 328 68 vstem
          123 63 rmoveto
          -49 45 61 -30 60 hhcurveto
          73 callsubr
          138 -117 112 -115 -100 callsubr
          hvcurveto
          -433 68 vlineto
          433 vmoveto
          -47 callgsubr
        </CharString>
        <CharString name="ring">
          -192 560 49 100 50 hstem
          58 50 99 50 vstem
          108 659 -75 callgsubr
          endchar
        </CharString>
        <CharString name="s">
          149 callgsubr
          hstem
          44 69 252 68 vstem
          240 201 -96 callgsubr
        </CharString>
        <CharString name="sacute">
          149 callgsubr
          83 175 hstemhm
          44 69 49 250 -47 68 88 callsubr
          162 601 -89 callgsubr
          hintmask 11010100
          -138 -541 -96 callgsubr
        </CharString>
        <CharString name="scaron">
          149 callgsubr
          83 158 hstemhm
          44 69 -8 271 -11 68 88 callsubr
          357 725 -94 callsubr
          hintmask 11010100
          -136 -490 -96 callgsubr
        </CharString>
        <CharString name="scedilla">
          -65 62 callsubr
          490 62 hstem
          45 69 149 65 38 68 vstem
          241 201 rmoveto
          52 -10 73 -5 -54 vvcurveto
          -48 -58 -37 -86 -64 -47 32 46 -19 vhcurveto
          -61 -30 27 -64 62 -39 76 -7 rlinecurve
          -41 -88 -72 callgsubr
          26 53 rlineto
          104 7 83 54 86 vvcurveto
          99 -106 25 -81 14 vhcurveto
          -58 10 -75 5 52 vvcurveto
          50 43 35 86 64 32 -32 -46 19 vhcurveto
          61 30 rlineto
          71 -30 -59 39 -87 hhcurveto
          -115 -83 -54 -93 -106 127 -16 69 -14 hvcurveto
          endchar
        </CharString>
        <CharString name="scircumflex">
          149 callgsubr
          83 158 hstemhm
          44 69 -8 271 -11 68 88 callsubr
          124 567 -101 callsubr
          hintmask 11010100
          135 -400 -96 callgsubr
        </CharString>
        <CharString name="scommaaccent">
          -67 -260 222 22 63 375 62 hstem
          44 69 52 108 92 68 vstem
          165 -92 rmoveto
          -102 callsubr
          75 293 -96 callgsubr
        </CharString>
        <CharString name="section">
          -39 -78 63 649 63 hstemhm
          35 68 -27 68 204 69 -28 69 hintmask 00000000
          hintmask 11010100
          388 160 rmoveto
          53 35 17 27 60 vvcurveto
          114 -96 23 -85 36 vhcurveto
          -59 24 -74 0 68 vvcurveto
          42 37 45 61 36 49 -22 -37 23 vhcurveto
          56 40 rlineto
          54 -35 -53 28 -62 hhcurveto
          -109 -71 -62 -91 -38 11 -27 18 -20 hvcurveto
          hintmask 11101000
          -53 -35 -17 -27 -60 vvcurveto
          -114 95 -23 85 -36 vhcurveto
          59 -24 74 0 -68 vvcurveto
          -42 -36 -45 -61 -36 -50 22 37 -23 vhcurveto
          -55 -40 rlineto
          -54 35 52 -28 62 hhcurveto
          109 72 62 91 38 -11 27 -18 20 hvcurveto
          -228 260 rmoveto
          37 -17 42 -7 31 -10 rrcurveto
          hintmask 11100100
          57 -19 62 -20 -65 vvcurveto
          -34 -9 -19 -48 -30 vhcurveto
          -37 16 -42 8 -31 10 rrcurveto
          -57 19 -62 20 65 vvcurveto
          33 10 20 47 30 vhcurveto
          endchar
        </CharString>
        <CharString name="semicolon">
          -311 -121 222 262 72 callsubr
          418 rmoveto
          -77 callsubr
          -371 vmoveto
          -102 callsubr
          endchar
        </CharString>
        <CharString name="seven">
          -109 21 -21 613 69 hstem
          10 613 rmoveto
          308 hlineto
          -209 -613 rlineto
          81 hlineto
          232 682 rlineto
          -412 hlineto
          endchar
        </CharString>
        <CharString name="sigma">
          30 -16 -54 callsubr
          hstem
          34 68 328 68 vstem
          102 234 rmoveto
          -101 callgsubr
          312 188 rmoveto
          127 62 -275 hlineto
          -71 callsubr
          73 callsubr
          75 -34 67 -50 46 hvcurveto
          endchar
        </CharString>
        <CharString name="sigma1">
          -65 -174 62 534 62 hstem
          38 62 264 62 vstem
          450 484 rmoveto
          -268 -144 -60 -220 -117 42 -86 126 -9 hvcurveto
          58 -4 100 -2 -44 vvcurveto
          -33 -20 -21 -46 vhcurveto
          -62 vlineto
          94 34 56 60 84 -80 19 -136 9 hvcurveto
          -92 6 -18 88 56 vvcurveto
          188 124 30 226 vhcurveto
          endchar
        </CharString>
        <CharString name="six">
          3 -16 62 356 63 168 64 hstem
          44 68 329 67 vstem
          508 225 rmoveto
          138 -117 102 -115 -49 -48 -19 -31 -40 vhcurveto
          52 161 118 45 83 12 rrcurveto
          64 vlineto
          -148 -8 -200 -122 -342 vvcurveto
          -138 116 -103 -39 callgsubr
          118 103 138 vhcurveto
          -67 hmoveto
          -104 -79 -75 -86 -86 -78 75 104 104 78 73 86 86 79 -73 -104 vhcurveto
          endchar
        </CharString>
        <CharString name="slash">
          -154 56 callsubr
          34 310 vstem
          344 682 66 callgsubr
          endchar
        </CharString>
        <CharString name="space">
          -308 endchar
        </CharString>
        <CharString name="sterling">
          -61 0 62 262 55 257 61 hstemhm
          68 74 -3 74 129 74 hintmask 00000000
          hintmask 11110100
          416 551 rmoveto
          80 -82 66 -92 -90 -84 -33 -113 -52 39 -64 20 -56 vhcurveto
          -67 -55 hlineto
          hintmask 11101100
          79 hlineto
          -156 -86 -106 0 vhcurveto
          -62 382 62 -307 vlineto
          0 85 119 143 vvcurveto
          80 55 -87 hlineto
          hintmask 11110100
          -18 70 -46 56 46 vvcurveto
          53 51 32 49 49 51 -34 -51 vhcurveto
          endchar
        </CharString>
        <CharString name="t">
          -255 149 callsubr
          88 68 vstem
          75 callsubr
          endchar
        </CharString>
        <CharString name="tau">
          -75 0 21 385 62 hstem
          194 68 vstem
          262 406 rmoveto
          66 callsubr
          68 hlineto
          endchar
        </CharString>
        <CharString name="tbar">
          -254 21 -21 273 44 89 62 hstem
          88 68 vstem
          28 406 rmoveto
          60 -89 -60 -44 60 -273 68 273 91 44 -91 89 108 62 -108 155 -68 -155 -60 hlineto
          endchar
        </CharString>
        <CharString name="tcaron">
          -255 0 21 385 62 45 222 hstem
          88 68 39 108 vstem
          195 681 rmoveto
          -102 callsubr
          -167 -275 -59 callgsubr
          endchar
        </CharString>
        <CharString name="tcommaaccent">
          -32 callgsubr
        </CharString>
        <CharString name="theta">
          14 -16 69 277 60 283 68 hstem
          47 80 292 80 vstem
          273 -16 rmoveto
          153 73 186 192 192 -73 187 -153 -154 -72 -187 -192 -192 72 -186 154 hvcurveto
          146 346 rmoveto
          -140 -6 -48 -137 -92 hhcurveto
          -93 -47 137 140 -6 hvcurveto
          292 60 rmoveto
          -292 hlineto
          141 5 47 142 94 hhcurveto
          93 47 -142 -141 6 hvcurveto
          endchar
        </CharString>
        <CharString name="thorn">
          -30 -179 -21 621 63 hstem
          63 68 269 74 vstem
          131 -200 rmoveto
          159 vlineto
          68 29 275 132 226 vvcurveto
          80 -45 58 -93 -104 -67 -43 -31 -34 vhcurveto
          213 -68 -823 vlineto
          68 511 rmoveto
          45 35 69 65 101 hhcurveto
          24 40 -23 -49 -168 -210 -107 -59 -26 hvcurveto
          endchar
        </CharString>
        <CharString name="three">
          -28 -16 68 285 67 226 67 hstemhm
          359 155 callgsubr
          319 376 rmoveto
          65 33 50 52 60 vvcurveto
          109 -92 67 -106 -60 -72 -34 -57 -45 vhcurveto
          54 -42 rlineto
          44 31 49 22 43 hhcurveto
          82 41 -48 -61 -73 -105 -44 -86 hvcurveto
          -67 vlineto
          hintmask 11101000
          86 128 -26 -125 -104 -85 -30 -86 -50 -58 25 44 -31 hvcurveto
          -53 -42 rlineto
          -57 45 81 -38 66 hhcurveto
          115 131 64 138 100 -63 59 -75 31 hvcurveto
          endchar
        </CharString>
        <CharString name="threequarters">
          242 21 -21 105 58 91 54 152 54 122 53 -7 -20 hstemhm
          238 58 -44 58 328 59 -62 callgsubr
          hintmask 1111101010000000
          55 71 callsubr
          hintmask 1111100110000000
          23 callsubr
          hintmask 1111101010000000
          108 callgsubr
          hintmask 1111010110000000
          503 55 66 callgsubr
          328 324 38 callsubr
        </CharString>
        <CharString name="tilde">
          -49 567 109 callsubr
          59 116 callgsubr
          hintmask 10110000
          289 634 -49 callsubr
        </CharString>
        <CharString name="tildecomb">
          -531 567 109 callsubr
          -482 116 callgsubr
          hintmask 10110000
          -252 634 -49 callsubr
        </CharString>
        <CharString name="tonos">
          -246 603 205 hstem
          70 150 vstem
          70 144 callsubr
          endchar
        </CharString>
        <CharString name="trademark">
          57 496 -21 206 45 hstem
          113 49 108 49 137 50 vstem
          48 681 rmoveto
          65 -206 49 206 66 45 -180 hlineto
          222 -251 rmoveto
          49 116 hlineto
          47 -116 rlineto
          43 hlineto
          47 116 rlineto
          -116 50 251 -48 vlineto
          -70 -174 -70 174 rlineto
          -48 hlineto
          endchar
        </CharString>
        <CharString name="two">
          -34 0 68 561 68 hstem
          369 77 vstem
          453 68 rmoveto
          -331 hlineto
          15 70 72 79 69 51 rrcurveto
          126 93 42 59 92 vvcurveto
          121 -82 64 -125 -89 -53 -37 -80 -62 vhcurveto
          55 -47 rlineto
          61 45 36 35 68 hhcurveto
          84 46 -37 -80 -74 -42 -44 -83 -67 hvcurveto
          -113 -91 -88 -93 -100 vvcurveto
          -43 410 vlineto
          endchar
        </CharString>
        <CharString name="u">
          4 -17 63 -25 -21 468 -20 hstemhm
          58 67 278 69 hintmask 00000000
          hintmask 10111000
          58 172 rmoveto
          -63 callsubr
          hintmask 01111000
          -21 callsubr
          hintmask 10111000
          -65 callsubr
        </CharString>
        <CharString name="uacute">
          -3 callgsubr
          99 175 hstemhm
          58 67 60 250 -32 69 69 callgsubr
          185 601 -89 callgsubr
          hintmask 10101010
          -343 -570 -68 callgsubr
        </CharString>
        <CharString name="ubreve">
          -3 callgsubr
          92 161 callgsubr
          58 67 3 271 4 69 hintmask 00000000
          hintmask 00011010
          358 698 -93 callsubr
          hintmask 10100101
          -341 -526 rmoveto
          -63 callsubr
          hintmask 01100101
          -21 callsubr
          hintmask 10100101
          -65 callsubr
        </CharString>
        <CharString name="ucircumflex">
          -3 callgsubr
          99 158 hstemhm
          58 67 3 271 4 69 69 callgsubr
          147 567 -101 callsubr
          hintmask 10101010
          -70 -429 -68 callgsubr
        </CharString>
        <CharString name="udieresis">
          -3 callgsubr
          91 108 hstemhm
          58 67 -13 -57 callsubr
          -13 69 hintmask 00000000
          hintmask 00010110
          307 -103 callsubr
          hintmask 10101001
          -54 -441 rmoveto
          -63 callsubr
          hintmask 01101001
          -21 callsubr
          hintmask 10101001
          -65 callsubr
        </CharString>
        <CharString name="ugrave">
          -3 callgsubr
          99 175 hstemhm
          58 67 -33 250 61 69 69 callgsubr
          322 567 -81 callsubr
          hintmask 10101010
          -34 -512 -68 callgsubr
        </CharString>
        <CharString name="uhungarumlaut">
          -3 callgsubr
          92 219 hstemhm
          58 67 278 69 hintmask 00000000
          hintmask 00010000
          317 587 -64 callsubr
          hintmask 10101100
          -259 -607 rmoveto
          -63 callsubr
          hintmask 01101100
          -21 callsubr
          hintmask 10101100
          -65 callsubr
        </CharString>
        <CharString name="umacron">
          -3 callgsubr
          118 45 hstemhm
          58 67 -3 267 14 69 69 callgsubr
          122 46 callgsubr
          hintmask 10101010
          -331 -459 -68 callgsubr
        </CharString>
        <CharString name="underscore">
          -73 -86 59 hstem
          -27 vmoveto
          -59 458 59 vlineto
          endchar
        </CharString>
        <CharString name="uni00A0">
          -308 endchar
        </CharString>
        <CharString name="uni00AD">
          79 callgsubr
        </CharString>
        <CharString name="uni00B2">
          -175 258 54 323 54 hstem
          244 58 vstem
          40 611 rmoveto
          44 -37 58 callsubr
          54 -196 vlineto
          12 36 37 43 153 callgsubr
          43 -80 -58 -34 -26 -52 -39 vhcurveto
          endchar
        </CharString>
        <CharString name="uni00B3">
          -191 254 54 152 54 122 53 hstemhm
          231 58 -44 58 hintmask 00000000
          hintmask 11110000
          48 71 callsubr
          hintmask 11101000
          23 callsubr
          hintmask 11110000
          108 callgsubr
          endchar
        </CharString>
        <CharString name="uni00B5">
          43 -179 -21 183 63 -25 -21 468 -20 hstemhm
          69 67 317 69 hintmask 00000000
          hintmask 10111100
          453 4 callsubr
        </CharString>
        <CharString name="uni00B9">
          -309 682 -20 hstem
          105 57 vstem
          108 33 callgsubr
          endchar
        </CharString>
        <CharString name="uni0180">
          29 callgsubr
          83 48 111 111 callsubr
          hintmask 01111110
          33 567 rmoveto
          30 -567 68 63 hlineto
          hintmask 10111110
          -71 callgsubr
          161 174 48 -174 111 -68 -111 -30 vlineto
          98 -381 rmoveto
          -47 callgsubr
        </CharString>
        <CharString name="uni0181">
          168 0 62 276 63 218 63 hstemhm
          27 63 113 74 254 82 -35 82 hintmask 11111010
          90 426 rmoveto
          28 callgsubr
          -614 220 hlineto
          115 122 62 138 90 -52 58 -69 29 hvcurveto
          hintmask 11111100
          45 30 29 47 57 vvcurveto
          102 -94 69 -115 vhcurveto
          -228 101 callgsubr
          -108 vlineto
          250 -88 rmoveto
          144 hlineto
          hintmask 11111010
          69 callsubr
          -46 -86 hvcurveto
          -144 hlineto
          557 vmoveto
          127 hlineto
          hintmask 11111100
          2 callsubr
          endchar
        </CharString>
        <CharString name="uni0186">
          41 -16 68 576 69 hstem
          452 76 vstem
          26 537 rmoveto
          65 -35 rlineto
          70 38 51 56 73 hhcurveto
          120 79 -137 -150 -150 -79 -139 -120 -68 -49 50 64 -39 hvcurveto
          -59 -42 rlineto
          -85 55 71 -55 166 callsubr
          122 165 192 192 -122 164 -153 -96 -76 -65 -95 -55 hvcurveto
          endchar
        </CharString>
        <CharString name="uni0187">
          47 -30 callsubr
          48 68 hstem
          44 76 351 63 vstem
          546 144 rmoveto
          -81 callgsubr
          28 callgsubr
          68 -27 101 callgsubr
          -32 vlineto
          40 -43 -51 24 -58 60 callsubr
        </CharString>
        <CharString name="uni0188">
          -52 -16 -54 callsubr
          94 68 hstem
          34 68 278 63 vstem
          454 74 rmoveto
          -40 callgsubr
          104 78 84 86 -7 callsubr
          28 callgsubr
          68 -27 101 callgsubr
          -50 vlineto
          23 -35 -39 13 -40 60 callgsubr
        </CharString>
        <CharString name="uni0189">
          96 0 68 241 62 242 69 hstem
          96 75 332 79 vstem
          171 -58 callsubr
        </CharString>
        <CharString name="uni018A">
          202 0 68 545 69 hstem
          27 63 113 74 332 79 vstem
          90 426 rmoveto
          28 callgsubr
          -614 149 hlineto
          172 164 102 238 238 -164 104 -172 hvcurveto
          -176 101 callgsubr
          -108 vlineto
          250 187 rmoveto
          53 hlineto
          173 106 -84 -189 -189 -106 -83 -173 hvcurveto
          -53 hlineto
          endchar
        </CharString>
        <CharString name="uni018E">
          -37 callgsubr
          hstem
          350 74 vstem
          424 hmoveto
          682 -382 -63 308 -218 -240 -61 240 -278 -311 -62 vlineto
          endchar
        </CharString>
        <CharString name="uni018F">
          98 -16 68 195 64 317 69 hstem
          510 76 vstem
          64 537 -67 callgsubr
        </CharString>
        <CharString name="uni0190">
          -15 -16 118 callgsubr
          hstemhm
          46 155 callgsubr
          147 365 rmoveto
          -63 -29 -38 -52 -82 vvcurveto
          -142 100 -76 136 120 59 38 57 45 vhcurveto
          -53 42 rlineto
          -44 -31 -60 -25 -80 hhcurveto
          -92 -69 62 72 80 65 61 118 hvcurveto
          67 vlineto
          hintmask 11101000
          -120 -40 56 61 61 48 58 75 43 71 -11 -41 35 hvcurveto
          50 47 rlineto
          53 -50 -89 19 -60 hhcurveto
          -106 -92 -55 -131 -53 21 -57 57 -36 hvcurveto
          endchar
        </CharString>
        <CharString name="uni0191">
          -52 -200 68 472 61 218 63 hstem
          79 75 vstem
          79 682 rmoveto
          -734 vlineto
          68 callgsubr
          79 66 82 hvcurveto
          392 240 61 -240 218 307 63 vlineto
          endchar
        </CharString>
        <CharString name="uni0193">
          81 -16 54 callsubr
          48 68 hstemhm
          44 76 361 63 -54 74 hintmask 00000000
          hintmask 11111010
          329 291 rmoveto
          161 hlineto
          -209 -79 -29 -106 -120 -65 81 callgsubr
          76 139 128 81 40 -50 -64 39 vhcurveto
          hintmask 11111100
          60 42 rlineto
          28 callgsubr
          68 -27 101 callgsubr
          -28 vlineto
          38 -39 -48 22 -70 hhcurveto
          -166 -114 70 callgsubr
          108 -164 153 hvcurveto
          hintmask 11111010
          161 98 84 223 hvcurveto
          62 -235 vlineto
          endchar
        </CharString>
        <CharString name="uni0194">
          -3 -200 62 hstem
          178 70 32 70 vstem
          264 -138 rmoveto
          -9 -7 5 27 11 6 22 10 28 hvcurveto
          10 -28 6 -22 -11 vvcurveto
          -27 -7 -5 -9 vhcurveto
          -40 203 rmoveto
          -20 -55 -26 -75 -31 vvcurveto
          -62 27 -42 59 59 27 42 62 31 -26 75 -20 55 vhcurveto
          224 617 rlineto
          -79 hlineto
          -185 -508 -185 508 rlineto
          -79 hlineto
          endchar
        </CharString>
        <CharString name="uni0196">
          -267 0 68 614 -20 hstem
          75 75 vstem
          236 hmoveto
          68 vlineto
          -46 -40 18 62 hvcurveto
          534 -75 -534 vlineto
          -102 79 -46 82 vhcurveto
          endchar
        </CharString>
        <CharString name="uni0197">
          -234 21 -21 328 42 312 -20 hstem
          111 75 vstem
          186 328 rmoveto
          89 42 -89 312 -75 -312 -90 -42 90 -328 75 hlineto
          endchar
        </CharString>
</ttFont>
